<svg version="1.1" id="Layer_1" xmlns="http://www.w3.org/2000/svg" xmlns:xlink="http://www.w3.org/1999/xlink" x="0px" y="0px"
	 width="100%" viewBox="0 0 512 512" enable-background="new 0 0 512 512" xml:space="preserve">
<path fill="#FFFFFF" opacity="1.000000" stroke="none" 
	d="
M236.000000,513.000000 
	C157.352402,513.000000 79.204803,513.000000 1.028605,513.000000 
	C1.028605,342.394043 1.028605,171.788086 1.028605,1.091059 
	C171.564285,1.091059 342.128632,1.091059 512.846497,1.091059 
	C512.846497,171.666565 512.846497,342.333252 512.846497,513.000000 
	C420.788055,513.000000 328.644012,513.000000 236.000000,513.000000 
M64.307716,193.024704 
	C63.476437,193.973083 62.645157,194.921448 61.934380,195.957916 
	C61.934380,195.957916 61.864124,195.826218 61.235218,196.165161 
	C59.904881,201.444321 58.574547,206.723495 56.990913,212.643112 
	C57.002525,213.098404 57.014137,213.553696 56.716003,214.552948 
	C56.617374,215.371216 56.518745,216.189484 56.130848,217.721085 
	C56.101395,218.485718 56.071945,219.250336 55.697960,220.701859 
	C54.127556,231.135391 52.557156,241.568939 50.758110,252.447876 
	C50.788216,252.612030 50.818321,252.776184 50.434582,253.572327 
	C50.009613,256.715363 49.584641,259.858429 48.926197,263.641022 
	C48.943359,264.091339 48.960522,264.541626 48.591030,265.657837 
	C47.461880,273.105896 46.332733,280.553925 44.964027,288.643250 
	C44.977589,289.096039 44.991146,289.548798 44.698208,290.445709 
	C44.675144,290.967010 44.652077,291.488312 44.254879,292.689972 
	C44.209255,293.459900 44.163631,294.229858 43.828465,295.729675 
	C43.292057,299.487152 42.755650,303.244598 41.949707,307.633331 
	C41.958427,308.085876 41.967148,308.538391 41.631947,309.587982 
	C41.500217,310.726257 41.368484,311.864502 40.985405,313.643036 
	C40.997494,314.097870 41.009583,314.552673 40.673210,315.690979 
	C38.820957,327.794220 36.968708,339.897430 34.850155,352.615112 
	C34.850460,353.057037 34.850769,353.498993 34.432537,354.570007 
	C34.013309,357.713989 33.594082,360.858002 32.954048,364.646118 
	C32.967705,365.096863 32.981361,365.547607 32.603054,366.656372 
	C32.525723,367.687622 32.448395,368.718872 32.358921,369.912079 
	C39.893379,369.912079 47.055210,370.474579 54.068970,369.698639 
	C58.198395,369.241791 62.092815,366.660736 66.564850,364.915405 
	C66.867928,364.729340 67.026024,364.458588 67.675514,363.818237 
	C72.126648,358.678436 72.506500,352.320251 73.233604,345.548492 
	C73.201599,345.383820 73.169586,345.219116 73.549759,344.412384 
	C74.189079,339.938751 74.828407,335.465088 75.804817,330.248108 
	C75.872429,329.166351 75.940041,328.084564 76.392769,326.337280 
	C77.197403,320.890900 78.002029,315.444489 79.043907,309.357086 
	C79.029915,308.904938 79.015923,308.452789 79.313332,307.558777 
	C79.339813,307.035980 79.366302,306.513214 79.762444,305.272858 
	C79.878883,304.202545 79.995323,303.132233 80.716179,302.352173 
	C81.450027,303.451752 82.253700,304.511475 82.907249,305.656830 
	C92.644249,322.721436 102.392815,339.779541 112.068184,356.879059 
	C116.083908,363.976135 121.758568,369.166016 130.010590,369.657776 
	C140.243729,370.267670 150.540848,369.803894 161.445450,369.803894 
	C160.491287,367.894348 159.837173,366.429108 159.052185,365.037720 
	C147.598618,344.736572 136.191101,324.408783 124.589165,304.192657 
	C122.932808,301.306519 122.712883,299.614929 125.265068,297.000427 
	C141.555237,280.312531 157.626007,263.410400 173.751556,246.562134 
	C174.457092,245.824997 174.992828,244.925339 175.933441,243.664810 
	C163.934433,243.664810 152.639847,243.668411 141.345261,243.663559 
	C133.466919,243.660187 127.542336,247.185455 122.342239,253.023239 
	C109.270859,267.697540 95.856133,282.066040 82.092522,296.086029 
	C81.924873,295.934845 81.757233,295.783661 81.523911,294.827911 
	C81.653831,293.223572 81.783752,291.619263 82.122360,289.525757 
	C82.086136,289.352203 82.049911,289.178680 82.348854,288.403931 
	C82.487419,287.268372 82.625977,286.132782 83.030418,284.237335 
	C83.337395,281.819183 83.644371,279.401001 84.304176,276.300385 
	C85.379784,269.197571 86.455391,262.094757 87.818794,254.367279 
	C87.820953,253.912216 87.823120,253.457169 88.095940,252.241577 
	C89.011238,246.160568 89.926544,240.079544 91.074883,233.359207 
	C91.058151,232.909119 91.041420,232.459015 91.349319,231.573120 
	C91.385986,231.045532 91.422653,230.517929 91.799629,229.248688 
	C91.869316,228.166870 91.939011,227.085068 92.389854,225.335678 
	C93.192894,219.889771 93.995941,214.443848 95.036240,208.356079 
	C95.022621,207.903534 95.009010,207.450974 95.300003,206.553268 
	C95.324028,206.032303 95.348053,205.511337 95.754662,204.261703 
	C95.828606,203.171646 95.902550,202.081589 96.344116,200.318619 
	C96.911819,196.812775 97.479523,193.306946 98.017357,189.985565 
	C89.840569,189.985565 82.417290,189.985565 74.322807,189.872879 
	C73.882454,189.964310 73.442101,190.055725 72.241516,190.068527 
	C69.794861,191.023087 67.348206,191.977631 64.982216,192.991119 
	C64.982216,192.991119 64.940430,192.900375 64.307716,193.024704 
M484.802948,220.312027 
	C479.510529,224.219406 474.697754,229.244888 468.812256,231.769821 
	C460.172760,235.476212 450.908722,238.112259 441.661407,239.948502 
	C405.677277,247.093872 369.191101,247.301178 332.691498,246.922165 
	C327.237366,246.865524 321.782074,246.914307 315.928986,246.914307 
	C314.728119,254.674255 313.519501,262.484131 312.270721,270.553528 
	C313.590393,270.684509 314.395721,270.850983 315.196503,270.831360 
	C341.813690,270.179321 368.468994,270.173431 395.035126,268.632446 
	C416.313385,267.398193 437.366211,263.709259 457.506592,256.146912 
	C467.131592,252.532898 476.196442,247.988464 482.319214,239.296021 
	C486.429840,233.460236 488.163483,227.067047 485.529755,219.917465 
	C485.529755,219.917465 485.422913,219.823593 485.422913,219.823593 
	C485.422913,219.823593 485.467346,220.079086 484.802948,220.312027 
M190.522141,260.892212 
	C184.807053,297.040070 179.091949,333.187958 173.281509,369.938843 
	C179.654526,369.938843 185.609680,369.944275 191.564819,369.937744 
	C205.811188,369.922150 211.752960,364.669159 213.898682,350.605682 
	C216.459824,333.819397 219.047531,317.034027 221.923370,300.299744 
	C225.280640,280.764099 237.419937,270.697144 257.075867,270.695221 
	C269.883789,270.693970 282.691711,270.694977 295.912811,270.694977 
	C297.395782,261.130402 298.828461,251.890060 300.260162,242.656052 
	C283.878571,242.656052 268.252319,242.461090 252.634445,242.737793 
	C244.753082,242.877441 237.852448,246.350311 231.502960,250.876831 
	C230.479752,251.606293 229.432388,252.301865 227.905182,253.350128 
	C228.353973,249.795700 228.720551,246.892303 229.144119,243.537552 
	C217.636932,243.537552 206.661087,243.457596 195.691147,243.676270 
	C194.723495,243.695572 193.221786,245.538849 192.950821,246.754089 
	C191.974548,251.132568 191.419220,255.604919 190.522141,260.892212 
M212.937119,162.485794 
	C208.342560,168.565872 206.831482,175.209915 209.203369,183.144379 
	C215.813828,174.393204 224.877914,170.310120 234.584686,167.599472 
	C242.586227,165.365005 250.690048,163.264938 258.886658,162.001556 
	C292.101166,156.881989 325.569427,156.540283 359.079834,157.318481 
	C365.531006,157.468307 371.988678,157.340012 378.826050,157.340012 
	C380.019928,149.678253 381.233002,141.893234 382.496552,133.784500 
	C379.385925,133.598969 377.069366,133.315613 374.756836,133.345398 
	C352.442963,133.632935 330.105988,133.446472 307.823273,134.451630 
	C287.018555,135.390106 266.347931,138.169495 246.251480,144.018661 
	C234.020645,147.578537 222.213303,152.065994 212.937119,162.485794 
M309.480927,208.283768 
	C290.576935,206.821869 271.553192,206.225754 252.805527,203.633362 
	C236.842896,201.426086 220.548019,198.432068 209.107208,184.874512 
	C204.974472,193.096481 205.843643,200.697632 212.601257,206.786957 
	C216.989212,210.740952 222.010834,214.459152 227.399231,216.757492 
	C256.201141,229.042526 286.615814,232.742310 318.125427,233.069809 
	C319.453491,224.738098 320.719147,216.797775 322.076233,208.283920 
	C317.734100,208.283920 314.102203,208.283920 309.480927,208.283768 
M461.474426,203.868179 
	C470.624054,206.570480 479.423981,209.890350 485.539124,218.070618 
	C488.984070,209.887726 487.706268,200.916107 481.587555,195.789413 
	C477.060089,191.995987 471.934906,188.480331 466.493195,186.286850 
	C438.601501,175.044159 409.234161,171.911865 379.451050,171.584183 
	C378.398010,171.572586 376.531891,172.484238 376.397614,173.214340 
	C375.033173,180.635254 373.950104,188.107895 372.717377,196.020782 
	C381.338989,196.020782 389.144531,195.772583 396.929443,196.068344 
	C418.380615,196.883316 439.830658,197.863312 461.474426,203.868179 
z"/>
<path fill="#2358AF" opacity="1.000000" stroke="none" 
	d="
M190.613525,260.467010 
	C191.419220,255.604919 191.974548,251.132568 192.950821,246.754089 
	C193.221786,245.538849 194.723495,243.695572 195.691147,243.676270 
	C206.661087,243.457596 217.636932,243.537552 229.144119,243.537552 
	C228.720551,246.892303 228.353973,249.795700 227.905182,253.350128 
	C229.432388,252.301865 230.479752,251.606293 231.502960,250.876831 
	C237.852448,246.350311 244.753082,242.877441 252.634445,242.737793 
	C268.252319,242.461090 283.878571,242.656052 300.260162,242.656052 
	C298.828461,251.890060 297.395782,261.130402 295.912811,270.694977 
	C282.691711,270.694977 269.883789,270.693970 257.075867,270.695221 
	C237.419937,270.697144 225.280640,280.764099 221.923370,300.299744 
	C219.047531,317.034027 216.459824,333.819397 213.898682,350.605682 
	C211.752960,364.669159 205.811188,369.922150 191.564819,369.937744 
	C185.609680,369.944275 179.654526,369.938843 173.281509,369.938843 
	C179.091949,333.187958 184.807053,297.040070 190.613525,260.467010 
z"/>
<path fill="#2056AE" opacity="1.000000" stroke="none" 
	d="
M48.977684,264.991943 
	C48.960522,264.541626 48.943359,264.091339 49.405983,263.229675 
	C50.206650,259.525665 50.527534,256.233002 50.848423,252.940323 
	C50.818321,252.776184 50.788216,252.612030 51.197334,252.052765 
	C52.066269,250.973618 52.758011,250.334961 52.885490,249.598602 
	C54.291187,241.478729 55.702934,233.357086 56.872749,225.201477 
	C57.110149,223.546387 56.345299,221.747543 56.042496,220.014969 
	C56.071945,219.250336 56.101395,218.485718 56.565620,217.290710 
	C57.008846,215.909882 57.017296,214.959442 57.025749,214.008987 
	C57.014137,213.553696 57.002525,213.098404 57.472145,212.225708 
	C59.256958,206.480957 60.560543,201.153580 61.864128,195.826218 
	C61.864124,195.826218 61.934380,195.957916 62.235100,195.925323 
	C63.337360,194.895264 64.138893,193.897827 64.940430,192.900375 
	C64.940430,192.900375 64.982216,192.991119 65.350716,192.984039 
	C68.146729,192.033707 70.574242,191.090424 73.001755,190.147141 
	C73.442101,190.055725 73.882454,189.964310 74.950989,190.228638 
	C80.802254,190.722992 86.024834,190.937027 91.248619,190.971832 
	C94.365395,190.992615 96.392303,191.381317 95.213829,195.441452 
	C94.738327,197.079666 95.679848,199.129196 95.976486,200.991531 
	C95.902550,202.081589 95.828606,203.171646 95.323853,204.698883 
	C94.927162,205.756836 94.961281,206.377640 94.995392,206.998428 
	C95.009010,207.450974 95.022621,207.903534 94.558762,208.770264 
	C92.458931,214.675934 89.682564,220.025192 92.008705,226.003250 
	C91.939011,227.085068 91.869316,228.166870 91.379608,229.685257 
	C90.981285,230.750854 91.002983,231.379898 91.024689,232.008926 
	C91.041420,232.459015 91.058151,232.909119 90.595070,233.768707 
	C88.920036,240.255142 87.717438,246.330688 86.586365,252.419540 
	C86.565262,252.533096 87.393387,252.804398 87.825287,253.002106 
	C87.823120,253.457169 87.820953,253.912216 87.345398,254.794052 
	C85.584816,261.747101 84.260513,268.266632 83.068253,274.810211 
	C82.949997,275.459259 83.637711,276.255127 83.951347,276.982849 
	C83.644371,279.401001 83.337395,281.819183 82.573471,284.690613 
	C82.082253,286.430969 82.047966,287.718048 82.013687,289.005157 
	C82.049911,289.178680 82.086136,289.352203 81.700302,289.955261 
	C79.618858,294.150208 77.589531,297.878723 80.111755,302.061920 
	C79.995323,303.132233 79.878883,304.202545 79.335709,305.702698 
	C78.939957,306.755249 78.970940,307.377960 79.001923,308.000641 
	C79.015923,308.452789 79.029915,308.904938 78.564919,309.770721 
	C77.393173,315.790497 76.700417,321.396667 76.007660,327.002808 
	C75.940041,328.084564 75.872429,329.166351 75.312149,330.737000 
	C74.258858,335.835388 73.698219,340.444885 73.137581,345.054382 
	C73.169586,345.219116 73.201599,345.383820 72.789230,345.952698 
	C70.576279,352.272308 68.807709,358.187744 67.039139,364.103149 
	C67.026024,364.458588 66.867928,364.729340 65.934486,364.968719 
	C63.303192,365.713470 61.337650,366.852417 59.294815,367.013916 
	C52.691887,367.536041 46.060890,367.882263 39.439960,367.894623 
	C37.292839,367.898621 35.143402,366.665558 32.995026,365.998352 
	C32.981361,365.547607 32.967705,365.096863 33.423256,364.234375 
	C34.212002,360.528717 34.531540,357.234802 34.851074,353.940918 
	C34.850769,353.498993 34.850460,353.057037 35.337509,352.230469 
	C36.220993,351.187775 36.862644,350.569275 36.975925,349.865723 
	C38.371250,341.199432 39.798672,332.535370 40.965843,323.836914 
	C41.354103,320.943390 41.023586,317.953400 41.021667,315.007507 
	C41.009583,314.552673 40.997494,314.097870 41.435398,313.249207 
	C41.915546,311.567261 41.945705,310.279083 41.975868,308.990936 
	C41.967148,308.538391 41.958427,308.085876 42.436424,307.227173 
	C43.622700,304.186798 44.511105,301.582581 44.937321,298.904816 
	C45.132637,297.677704 44.419277,296.305939 44.118004,294.999786 
	C44.163631,294.229858 44.209255,293.459900 44.681355,292.276855 
	C45.073456,291.243011 45.039082,290.622314 45.004707,290.001587 
	C44.991146,289.548798 44.977589,289.096039 45.442451,288.229156 
	C46.513531,286.027985 47.447559,284.276031 47.635689,282.447327 
	C48.232685,276.644287 48.551399,270.812561 48.977684,264.991943 
z"/>
<path fill="#2459B0" opacity="1.000000" stroke="none" 
	d="
M80.413971,302.207031 
	C77.589531,297.878723 79.618858,294.150208 81.595963,290.199829 
	C81.783752,291.619263 81.653831,293.223572 81.387489,295.445343 
	C81.268715,296.502838 81.286354,296.942902 81.304001,297.382965 
	C81.729034,297.107697 82.154060,296.832428 82.579079,296.557129 
	C95.856133,282.066040 109.270859,267.697540 122.342239,253.023239 
	C127.542336,247.185455 133.466919,243.660187 141.345261,243.663559 
	C152.639847,243.668411 163.934433,243.664810 175.933441,243.664810 
	C174.992828,244.925339 174.457092,245.824997 173.751556,246.562134 
	C157.626007,263.410400 141.555237,280.312531 125.265068,297.000427 
	C122.712883,299.614929 122.932808,301.306519 124.589165,304.192657 
	C136.191101,324.408783 147.598618,344.736572 159.052185,365.037720 
	C159.837173,366.429108 160.491287,367.894348 161.445450,369.803894 
	C150.540848,369.803894 140.243729,370.267670 130.010590,369.657776 
	C121.758568,369.166016 116.083908,363.976135 112.068184,356.879059 
	C102.392815,339.779541 92.644249,322.721436 82.907249,305.656830 
	C82.253700,304.511475 81.450027,303.451752 80.413971,302.207031 
z"/>
<path fill="#F25426" opacity="1.000000" stroke="none" 
	d="
M485.379486,220.047333 
	C488.163483,227.067047 486.429840,233.460236 482.319214,239.296021 
	C476.196442,247.988464 467.131592,252.532898 457.506592,256.146912 
	C437.366211,263.709259 416.313385,267.398193 395.035126,268.632446 
	C368.468994,270.173431 341.813690,270.179321 315.196503,270.831360 
	C314.395721,270.850983 313.590393,270.684509 312.270721,270.553528 
	C313.519501,262.484131 314.728119,254.674255 315.928986,246.914307 
	C321.782074,246.914307 327.237366,246.865524 332.691498,246.922165 
	C369.191101,247.301178 405.677277,247.093872 441.661407,239.948502 
	C450.908722,238.112259 460.172760,235.476212 468.812256,231.769821 
	C474.697754,229.244888 479.510529,224.219406 485.116028,220.179230 
	C485.429077,220.046417 485.379486,220.047333 485.379486,220.047333 
z"/>
<path fill="#2359B0" opacity="1.000000" stroke="none" 
	d="
M213.145691,162.192413 
	C222.213303,152.065994 234.020645,147.578537 246.251480,144.018661 
	C266.347931,138.169495 287.018555,135.390106 307.823273,134.451630 
	C330.105988,133.446472 352.442963,133.632935 374.756836,133.345398 
	C377.069366,133.315613 379.385925,133.598969 382.496552,133.784500 
	C381.233002,141.893234 380.019928,149.678253 378.826050,157.340012 
	C371.988678,157.340012 365.531006,157.468307 359.079834,157.318481 
	C325.569427,156.540283 292.101166,156.881989 258.886658,162.001556 
	C250.690048,163.264938 242.586227,165.365005 234.584686,167.599472 
	C224.877914,170.310120 215.813828,174.393204 209.203369,183.144379 
	C206.831482,175.209915 208.342560,168.565872 213.145691,162.192413 
z"/>
<path fill="#255AB0" opacity="1.000000" stroke="none" 
	d="
M309.975586,208.283844 
	C314.102203,208.283920 317.734100,208.283920 322.076233,208.283920 
	C320.719147,216.797775 319.453491,224.738098 318.125427,233.069809 
	C286.615814,232.742310 256.201141,229.042526 227.399231,216.757492 
	C222.010834,214.459152 216.989212,210.740952 212.601257,206.786957 
	C205.843643,200.697632 204.974472,193.096481 209.107208,184.874512 
	C220.548019,198.432068 236.842896,201.426086 252.805527,203.633362 
	C271.553192,206.225754 290.576935,206.821869 309.975586,208.283844 
z"/>
<path fill="#F25426" opacity="1.000000" stroke="none" 
	d="
M461.088531,203.747986 
	C439.830658,197.863312 418.380615,196.883316 396.929443,196.068344 
	C389.144531,195.772583 381.338989,196.020782 372.717377,196.020782 
	C373.950104,188.107895 375.033173,180.635254 376.397614,173.214340 
	C376.531891,172.484238 378.398010,171.572586 379.451050,171.584183 
	C409.234161,171.911865 438.601501,175.044159 466.493195,186.286850 
	C471.934906,188.480331 477.060089,191.995987 481.587555,195.789413 
	C487.706268,200.916107 488.984070,209.887726 485.539124,218.070618 
	C479.423981,209.890350 470.624054,206.570480 461.088531,203.747986 
z"/>
<path fill="#2459B0" opacity="1.000000" stroke="none" 
	d="
M40.847439,315.349243 
	C41.023586,317.953400 41.354103,320.943390 40.965843,323.836914 
	C39.798672,332.535370 38.371250,341.199432 36.975925,349.865723 
	C36.862644,350.569275 36.220993,351.187775 35.470657,351.923218 
	C36.968708,339.897430 38.820957,327.794220 40.847439,315.349243 
z"/>
<path fill="#2459B0" opacity="1.000000" stroke="none" 
	d="
M32.799042,366.327362 
	C35.143402,366.665558 37.292839,367.898621 39.439960,367.894623 
	C46.060890,367.882263 52.691887,367.536041 59.294815,367.013916 
	C61.337650,366.852417 63.303192,365.713470 65.698532,365.028564 
	C62.092815,366.660736 58.198395,369.241791 54.068970,369.698639 
	C47.055210,370.474579 39.893379,369.912079 32.358921,369.912079 
	C32.448395,368.718872 32.525723,367.687622 32.799042,366.327362 
z"/>
<path fill="#2459B0" opacity="1.000000" stroke="none" 
	d="
M96.160301,200.655075 
	C95.679848,199.129196 94.738327,197.079666 95.213829,195.441452 
	C96.392303,191.381317 94.365395,190.992615 91.248619,190.971832 
	C86.024834,190.937027 80.802254,190.722992 75.286591,190.284973 
	C82.417290,189.985565 89.840569,189.985565 98.017357,189.985565 
	C97.479523,193.306946 96.911819,196.812775 96.160301,200.655075 
z"/>
<path fill="#2459B0" opacity="1.000000" stroke="none" 
	d="
M55.870224,220.358414 
	C56.345299,221.747543 57.110149,223.546387 56.872749,225.201477 
	C55.702934,233.357086 54.291187,241.478729 52.885490,249.598602 
	C52.758011,250.334961 52.066269,250.973618 51.311657,251.830048 
	C52.557156,241.568939 54.127556,231.135391 55.870224,220.358414 
z"/>
<path fill="#2459B0" opacity="1.000000" stroke="none" 
	d="
M48.784355,265.324890 
	C48.551399,270.812561 48.232685,276.644287 47.635689,282.447327 
	C47.447559,284.276031 46.513531,286.027985 45.562233,287.908508 
	C46.332733,280.553925 47.461880,273.105896 48.784355,265.324890 
z"/>
<path fill="#2459B0" opacity="1.000000" stroke="none" 
	d="
M84.127762,276.641602 
	C83.637711,276.255127 82.949997,275.459259 83.068253,274.810211 
	C84.260513,268.266632 85.584816,261.747101 87.201500,255.106384 
	C86.455391,262.094757 85.379784,269.197571 84.127762,276.641602 
z"/>
<path fill="#2459B0" opacity="1.000000" stroke="none" 
	d="
M87.960609,252.621841 
	C87.393387,252.804398 86.565262,252.533096 86.586365,252.419540 
	C87.717438,246.330688 88.920036,240.255142 90.478546,234.088379 
	C89.926544,240.079544 89.011238,246.160568 87.960609,252.621841 
z"/>
<path fill="#2459B0" opacity="1.000000" stroke="none" 
	d="
M67.357330,363.960693 
	C68.807709,358.187744 70.576279,352.272308 72.676514,346.177734 
	C72.506500,352.320251 72.126648,358.678436 67.357330,363.960693 
z"/>
<path fill="#2459B0" opacity="1.000000" stroke="none" 
	d="
M92.199280,225.669464 
	C89.682564,220.025192 92.458931,214.675934 94.440140,209.091187 
	C93.995941,214.443848 93.192894,219.889771 92.199280,225.669464 
z"/>
<path fill="#2459B0" opacity="1.000000" stroke="none" 
	d="
M76.200211,326.670044 
	C76.700417,321.396667 77.393173,315.790497 78.446289,310.091248 
	C78.002029,315.444489 77.197403,320.890900 76.200211,326.670044 
z"/>
<path fill="#2459B0" opacity="1.000000" stroke="none" 
	d="
M61.549675,195.995697 
	C60.560543,201.153580 59.256958,206.480957 57.598793,211.905487 
	C58.574547,206.723495 59.904881,201.444321 61.549675,195.995697 
z"/>
<path fill="#2459B0" opacity="1.000000" stroke="none" 
	d="
M73.343674,344.733398 
	C73.698219,340.444885 74.258858,335.835388 75.143608,331.108673 
	C74.828407,335.465088 74.189079,339.938751 73.343674,344.733398 
z"/>
<path fill="#2459B0" opacity="1.000000" stroke="none" 
	d="
M43.973236,295.364746 
	C44.419277,296.305939 45.132637,297.677704 44.937321,298.904816 
	C44.511105,301.582581 43.622700,304.186798 42.571190,306.911560 
	C42.755650,303.244598 43.292057,299.487152 43.973236,295.364746 
z"/>
<path fill="#2459B0" opacity="1.000000" stroke="none" 
	d="
M34.641808,354.255463 
	C34.531540,357.234802 34.212002,360.528717 33.533661,363.912292 
	C33.594082,360.858002 34.013309,357.713989 34.641808,354.255463 
z"/>
<path fill="#2459B0" opacity="1.000000" stroke="none" 
	d="
M50.641502,253.256317 
	C50.527534,256.233002 50.206650,259.525665 49.522720,262.909912 
	C49.584641,259.858429 50.009613,256.715363 50.641502,253.256317 
z"/>
<path fill="#2459B0" opacity="1.000000" stroke="none" 
	d="
M72.621635,190.107834 
	C70.574242,191.090424 68.146729,192.033707 65.310379,192.954590 
	C67.348206,191.977631 69.794861,191.023087 72.621635,190.107834 
z"/>
<path fill="#2459B0" opacity="1.000000" stroke="none" 
	d="
M82.181274,288.704529 
	C82.047966,287.718048 82.082253,286.430969 82.440536,285.070557 
	C82.625977,286.132782 82.487419,287.268372 82.181274,288.704529 
z"/>
<path fill="#2459B0" opacity="1.000000" stroke="none" 
	d="
M41.803905,309.289459 
	C41.945705,310.279083 41.915546,311.567261 41.561073,312.929077 
	C41.368484,311.864502 41.500217,310.726257 41.803905,309.289459 
z"/>
<path fill="#2459B0" opacity="1.000000" stroke="none" 
	d="
M64.624069,192.962540 
	C64.138893,193.897827 63.337360,194.895264 62.174850,195.881271 
	C62.645157,194.921448 63.476437,193.973083 64.624069,192.962540 
z"/>
<path fill="#2459B0" opacity="1.000000" stroke="none" 
	d="
M56.870876,214.280975 
	C57.017296,214.959442 57.008846,215.909882 56.710258,216.934052 
	C56.518745,216.189484 56.617374,215.371216 56.870876,214.280975 
z"/>
<path fill="#2459B0" opacity="1.000000" stroke="none" 
	d="
M44.851456,290.223633 
	C45.039082,290.622314 45.073456,291.243011 44.868423,291.936676 
	C44.652077,291.488312 44.675144,290.967010 44.851456,290.223633 
z"/>
<path fill="#2459B0" opacity="1.000000" stroke="none" 
	d="
M79.157623,307.779724 
	C78.970940,307.377960 78.939957,306.755249 79.150879,306.061493 
	C79.366302,306.513214 79.339813,307.035980 79.157623,307.779724 
z"/>
<path fill="#2459B0" opacity="1.000000" stroke="none" 
	d="
M95.147697,206.775848 
	C94.961281,206.377640 94.927162,205.756836 95.132568,205.063202 
	C95.348053,205.511337 95.324028,206.032303 95.147697,206.775848 
z"/>
<path fill="#2459B0" opacity="1.000000" stroke="none" 
	d="
M91.186996,231.791016 
	C91.002983,231.379898 90.981285,230.750854 91.209457,230.056091 
	C91.422653,230.517929 91.385986,231.045532 91.186996,231.791016 
z"/>
<path fill="#F25426" opacity="1.000000" stroke="none" 
	d="
M485.454620,219.982391 
	C485.379486,220.047333 485.429077,220.046417 485.448212,220.062744 
	C485.467346,220.079086 485.422913,219.823593 485.422913,219.823593 
	C485.422913,219.823593 485.529755,219.917465 485.454620,219.982391 
z"/>
<path fill="#FFFFFF" opacity="1.000000" stroke="none" 
	d="
M82.335800,296.321594 
	C82.154060,296.832428 81.729034,297.107697 81.304001,297.382965 
	C81.286354,296.942902 81.268715,296.502838 81.420334,295.847626 
	C81.757233,295.783661 81.924873,295.934845 82.335800,296.321594 
z"/>
</svg>