<svg version="1.1" xmlns="http://www.w3.org/2000/svg" xmlns:xlink="http://www.w3.org/1999/xlink" width="60" height="60" viewBox="0,0,256,256"><defs><clipPath id="clip-1"><rect x="0" y="0" width="60" height="60" rx="12" ry="0" id="clip0_170_10886" fill="none" stroke="none" stroke-width="1" stroke-linecap="butt" stroke-linejoin="miter"></rect></clipPath><clipPath id="clip-2"><rect x="9" y="11" width="40" height="40" id="clip1_170_10886" fill="none" stroke="none" stroke-width="1" stroke-linecap="butt" stroke-linejoin="miter"></rect></clipPath><radialGradient cx="30" cy="28" r="20.5" gradientUnits="userSpaceOnUse" id="color-1"><stop offset="0.50697" stop-color="#4c66ff"></stop><stop offset="1" stop-color="#31d0ff"></stop></radialGradient><linearGradient x1="17.5" y1="15.2339" x2="41" y2="40.2339" gradientUnits="userSpaceOnUse" id="color-2"><stop offset="0" stop-color="#ffffff"></stop><stop offset="0.62981" stop-color="#ffffff" stop-opacity="0"></stop></linearGradient><linearGradient x1="33.5" y1="33" x2="41.5" y2="45" gradientUnits="userSpaceOnUse" id="color-3"><stop offset="0" stop-color="#ffffff"></stop><stop offset="1" stop-color="#ffffff" stop-opacity="0"></stop></linearGradient><linearGradient x1="37" y1="32" x2="37" y2="46" gradientUnits="userSpaceOnUse" id="color-4"><stop offset="0" stop-color="#ffffff"></stop><stop offset="0.53278" stop-color="#ffffff" stop-opacity="0"></stop></linearGradient><linearGradient x1="38" y1="31" x2="52" y2="58" gradientUnits="userSpaceOnUse" id="color-5"><stop offset="0" stop-color="#21c2ea"></stop><stop offset="0.70699" stop-color="#2a81ff"></stop></linearGradient><linearGradient x1="38" y1="31" x2="52" y2="58" gradientUnits="userSpaceOnUse" id="color-6"><stop offset="0" stop-color="#21c2ea"></stop><stop offset="1" stop-color="#2a81ff"></stop></linearGradient><linearGradient x1="45.0943" y1="46.7157" x2="50.2798" y2="52.5131" gradientUnits="userSpaceOnUse" id="color-7"><stop offset="0" stop-color="#4deeff"></stop><stop offset="1" stop-color="#3c3aff"></stop></linearGradient></defs><g fill="none" fill-rule="nonzero" stroke="none" stroke-width="none" stroke-linecap="none" stroke-linejoin="none" stroke-miterlimit="10" stroke-dasharray="" stroke-dashoffset="0" font-family="none" font-weight="none" font-size="none" text-anchor="none" style="mix-blend-mode: normal"><g transform="scale(4.26667,4.26667)"><g clip-path="url(#clip-1)"><rect x="0" y="0" width="60" height="60" rx="12" ry="0" fill="#e5f7fc" stroke="none" stroke-width="1" stroke-linecap="butt" stroke-linejoin="miter"></rect><g clip-path="url(#clip-2)"><circle cx="29" cy="28" r="16" fill="url(#color-1)" stroke="none" stroke-width="1" stroke-linecap="butt" stroke-linejoin="miter"></circle><circle cx="29" cy="28" r="15.5" fill="none" stroke-opacity="0.25" stroke="url(#color-2)" stroke-width="1" stroke-linecap="butt" stroke-linejoin="miter"></circle><g fill="none" stroke="#87d1ff" stroke-width="1.5" stroke-linecap="butt" stroke-linejoin="miter"><path d="M11,23.25h36" opacity="0.8"></path><path d="M11,34.25h36" opacity="0.8"></path><path d="M26.5,11l-0.8177,1.47c-5.6657,10.1846 -5.3525,22.6429 0.8177,32.53v0" opacity="0.8"></path><path d="M32,11l0.718,1.6134c4.6109,10.3607 4.3475,22.2404 -0.718,32.3866v0" opacity="0.8"></path></g><circle cx="37" cy="39" r="7" fill-opacity="0.65" fill="url(#color-3)" stroke="none" stroke-width="1" stroke-linecap="butt" stroke-linejoin="miter"></circle><circle cx="37" cy="39" r="6.75" fill="none" stroke-opacity="0.5" stroke="url(#color-4)" stroke-width="0.5" stroke-linecap="butt" stroke-linejoin="miter"></circle><path d="M47,48.9998l-4.3,-4.3M44.9998,38.9999c0,4.4182 -3.5817,7.9999 -7.9999,7.9999c-4.4182,0 -7.9999,-3.5817 -7.9999,-7.9999c0,-4.4182 3.5817,-7.9999 7.9999,-7.9999c4.4182,0 7.9999,3.5817 7.9999,7.9999z" fill="none" stroke="url(#color-5)" stroke-width="2.2" stroke-linecap="round" stroke-linejoin="round"></path><g fill="none" stroke="url(#color-6)" stroke-width="2.2" stroke-linecap="round" stroke-linejoin="round"><g><path d="M47,48.9998l-4.3,-4.3M44.9998,38.9999c0,4.4182 -3.5817,7.9999 -7.9999,7.9999c-4.4182,0 -7.9999,-3.5817 -7.9999,-7.9999c0,-4.4182 3.5817,-7.9999 7.9999,-7.9999c4.4182,0 7.9999,3.5817 7.9999,7.9999z"></path></g></g></g><path d="M49.465,49.0504l0.1125,0.1392c0.5216,0.7175 0.5236,1.5576 -0.1622,2.2434c-0.6337,0.6337 -1.7322,0.6523 -2.3873,0.0543l-0.1259,-0.1273l-2.0883,-2.0872c-0.3907,-0.3905 -0.3908,-1.0238 -0.0001,-1.4144l1.0706,-1.0706c0.3966,-0.3965 1.0416,-0.3894 1.4294,0.0156z" fill="url(#color-7)" stroke="none" stroke-width="1" stroke-linecap="butt" stroke-linejoin="miter"></path></g></g></g></svg>