<svg width="60" height="60" viewBox="0 0 60 60" fill="none" xmlns="http://www.w3.org/2000/svg">
<g clip-path="url(#clip0_170_10886)">
<rect width="60" height="60" rx="12" fill="#FCEFE5"/>
<g clip-path="url(#clip1_170_10886)">
<circle cx="29" cy="28" r="16" fill="url(#paint0_radial_170_10886)"/>
<circle cx="29" cy="28" r="15.5" stroke="url(#paint1_linear_170_10886)" stroke-opacity="0.25"/>
<mask id="mask0_170_10886" style="mask-type:alpha" maskUnits="userSpaceOnUse" x="13" y="12" width="32" height="32">
<circle cx="29" cy="28" r="16" fill="url(#paint2_linear_170_10886)"/>
</mask>
<g mask="url(#mask0_170_10886)">
<line opacity="0.8" x1="11" y1="23.25" x2="47" y2="23.25" stroke="#FFCC87" stroke-width="1.5"/>
<line opacity="0.8" x1="11" y1="34.25" x2="47" y2="34.25" stroke="#FFCC87" stroke-width="1.5"/>
<path opacity="0.8" d="M26.5 11L25.6823 12.47C20.0166 22.6546 20.3298 35.1129 26.5 45V45" stroke="#FFCC87" stroke-width="1.5"/>
<path opacity="0.8" d="M32 11L32.718 12.6134C37.3289 22.9741 37.0655 34.8538 32 45V45" stroke="#FFCC87" stroke-width="1.5"/>
</g>
<circle cx="37" cy="39" r="7" fill="url(#paint3_linear_170_10886)" fill-opacity="0.65"/>
<circle cx="37" cy="39" r="6.75" stroke="url(#paint4_linear_170_10886)" stroke-opacity="0.5" stroke-width="0.5"/>
<path d="M47 48.9998L42.7 44.6998M44.9998 38.9999C44.9998 43.4181 41.4181 46.9998 36.9999 46.9998C32.5817 46.9998 29 43.4181 29 38.9999C29 34.5817 32.5817 31 36.9999 31C41.4181 31 44.9998 34.5817 44.9998 38.9999Z" stroke="url(#paint5_linear_170_10886)" stroke-width="2.2" stroke-linecap="round" stroke-linejoin="round"/>
<mask id="mask1_170_10886" style="mask-type:alpha" maskUnits="userSpaceOnUse" x="13" y="12" width="32" height="32">
<circle cx="29" cy="28" r="16" fill="url(#paint6_radial_170_10886)"/>
</mask>
<g mask="url(#mask1_170_10886)">
<g filter="url(#filter0_d_170_10886)">
<path d="M47 48.9998L42.7 44.6998M44.9998 38.9999C44.9998 43.4181 41.4181 46.9998 36.9999 46.9998C32.5817 46.9998 29 43.4181 29 38.9999C29 34.5817 32.5817 31 36.9999 31C41.4181 31 44.9998 34.5817 44.9998 38.9999Z" stroke="url(#paint7_linear_170_10886)" stroke-width="2.2" stroke-linecap="round" stroke-linejoin="round" shape-rendering="crispEdges"/>
</g>
</g>
</g>
<path d="M49.465 49.0504L49.5775 49.1896C50.0991 49.9071 50.1011 50.7472 49.4153 51.433C48.7816 52.0667 47.6831 52.0853 47.028 51.4873L46.9021 51.36L44.8138 49.2728C44.4231 48.8823 44.423 48.249 44.8137 47.8584L45.8843 46.7878C46.2809 46.3913 46.9259 46.3984 47.3137 46.8034L49.465 49.0504Z" fill="url(#paint8_linear_170_10886)"/>
</g>
<defs>
<filter id="filter0_d_170_10886" x="23.9" y="25.9" width="26.2" height="26.1998" filterUnits="userSpaceOnUse" color-interpolation-filters="sRGB">
<feFlood flood-opacity="0" result="BackgroundImageFix"/>
<feColorMatrix in="SourceAlpha" type="matrix" values="0 0 0 0 0 0 0 0 0 0 0 0 0 0 0 0 0 0 127 0" result="hardAlpha"/>
<feOffset dx="-1" dy="-1"/>
<feGaussianBlur stdDeviation="1.5"/>
<feComposite in2="hardAlpha" operator="out"/>
<feColorMatrix type="matrix" values="0 0 0 0 0.923452 0 0 0 0 0.373547 0 0 0 0 0.0136832 0 0 0 0.65 0"/>
<feBlend mode="darken" in2="BackgroundImageFix" result="effect1_dropShadow_170_10886"/>
<feBlend mode="normal" in="SourceGraphic" in2="effect1_dropShadow_170_10886" result="shape"/>
</filter>
<radialGradient id="paint0_radial_170_10886" cx="0" cy="0" r="1" gradientUnits="userSpaceOnUse" gradientTransform="translate(30 28) rotate(90) scale(20.5)">
<stop offset="0.506975" stop-color="#FFB34C"/>
<stop offset="1" stop-color="#FF8731"/>
</radialGradient>
<linearGradient id="paint1_linear_170_10886" x1="17.5" y1="15.2339" x2="41" y2="40.2339" gradientUnits="userSpaceOnUse">
<stop stop-color="white"/>
<stop offset="0.629808" stop-color="white" stop-opacity="0"/>
</linearGradient>
<linearGradient id="paint2_linear_170_10886" x1="29" y1="12" x2="29" y2="44" gradientUnits="userSpaceOnUse">
<stop stop-color="#FF8731"/>
<stop offset="1" stop-color="#FFB34C"/>
</linearGradient>
<linearGradient id="paint3_linear_170_10886" x1="33.5" y1="33" x2="41.5" y2="45" gradientUnits="userSpaceOnUse">
<stop stop-color="white"/>
<stop offset="1" stop-color="white" stop-opacity="0"/>
</linearGradient>
<linearGradient id="paint4_linear_170_10886" x1="37" y1="32" x2="37" y2="46" gradientUnits="userSpaceOnUse">
<stop stop-color="white"/>
<stop offset="0.532784" stop-color="white" stop-opacity="0"/>
</linearGradient>
<linearGradient id="paint5_linear_170_10886" x1="38" y1="31" x2="52" y2="58" gradientUnits="userSpaceOnUse">
<stop stop-color="#EA6521"/>
<stop offset="0.70699" stop-color="#FF8B2A"/>
</linearGradient>
<radialGradient id="paint6_radial_170_10886" cx="0" cy="0" r="1" gradientUnits="userSpaceOnUse" gradientTransform="translate(30 28) rotate(90) scale(20.5)">
<stop offset="0.317308" stop-color="#FFB34C"/>
<stop offset="1" stop-color="#FF8731"/>
</radialGradient>
<linearGradient id="paint7_linear_170_10886" x1="38" y1="31" x2="52" y2="58" gradientUnits="userSpaceOnUse">
<stop stop-color="#EA6521"/>
<stop offset="1" stop-color="#FF8B2A"/>
</linearGradient>
<linearGradient id="paint8_linear_170_10886" x1="45.0943" y1="46.7157" x2="50.2798" y2="52.5131" gradientUnits="userSpaceOnUse">
<stop stop-color="#FFB44D"/>
<stop offset="1" stop-color="#FF963A"/>
</linearGradient>
<clipPath id="clip0_170_10886">
<rect width="60" height="60" rx="12" fill="white"/>
</clipPath>
<clipPath id="clip1_170_10886">
<rect width="40" height="40" fill="white" transform="translate(9 11)"/>
</clipPath>
</defs>
</svg>
