<svg version="1.1" xmlns="http://www.w3.org/2000/svg" xmlns:xlink="http://www.w3.org/1999/xlink" width="50" height="50" viewBox="0,0,256,256"><defs><clipPath id="clip-1"><rect x="0" y="0" width="50" height="50" rx="10" ry="0" id="clip0_170_11009" fill="none" stroke="none" stroke-width="1"></rect></clipPath><linearGradient x1="24.5018" y1="-68.4999" x2="86.7077" y2="-8.59238" gradientUnits="userSpaceOnUse" id="color-1"><stop offset="0.5399" stop-color="#0a33b2"></stop><stop offset="0.87204" stop-color="#000314"></stop></linearGradient><linearGradient x1="14.0005" y1="18.5" x2="35.0003" y2="32.9995" gradientUnits="userSpaceOnUse" id="color-2"><stop offset="0" stop-color="#ffffff"></stop><stop offset="0.51748" stop-color="#ffffff" stop-opacity="0"></stop></linearGradient></defs><g fill="none" fill-rule="nonzero" stroke="none" stroke-width="none" stroke-linecap="butt" stroke-linejoin="miter" stroke-miterlimit="10" stroke-dasharray="" stroke-dashoffset="0" font-family="none" font-weight="none" font-size="none" text-anchor="none" style="mix-blend-mode: normal"><g transform="scale(5.12,5.12)"><g clip-path="url(#clip-1)"><rect x="0" y="0" width="50" height="50" rx="10" ry="0" fill-opacity="0.4" fill="#ffffff" stroke="none" stroke-width="1"></rect><path d="M26.7154,11.501c0.447,-0.0091 0.8833,0.1365 1.2354,0.4121c0.3499,0.274 0.5898,0.6599 0.6758,1.0879l0.4882,2.3457c0.4333,0.2067 0.8513,0.4402 1.2539,0.7002l2.3243,-0.7637c0.2579,-0.0839 0.5308,-0.1137 0.8007,-0.0869c0.2698,0.0269 0.5314,0.1092 0.7676,0.2422c0.2899,0.164 0.5293,0.4007 0.6992,0.6807l2.2569,3.7256c0.2378,0.3724 0.3316,0.8191 0.2646,1.2558c-0.067,0.4367 -0.2904,0.8342 -0.6289,1.1182l-1.8359,1.5644v1.4258l1.8076,1.6094c0.3338,0.2786 0.557,0.6679 0.6289,1.0967c0.0719,0.4286 -0.0118,0.869 -0.2363,1.2412l-2.1807,3.7246c-0.1691,0.285 -0.4109,0.52 -0.7002,0.6816c-0.2925,0.1619 -0.6208,0.2479 -0.9551,0.25c-0.2074,0.0013 -0.4143,-0.0295 -0.6123,-0.0918l-2.3144,-0.7636c-0.4052,0.2598 -0.8266,0.492 -1.2637,0.6972l-0.4863,2.3467c-0.09,0.4315 -0.33,0.8171 -0.6778,1.0879c-0.3521,0.2757 -0.7891,0.4214 -1.2363,0.4121h-4.5137c-0.4471,0.0093 -0.8841,-0.1364 -1.2363,-0.4121c-0.3469,-0.2711 -0.5863,-0.6568 -0.6758,-1.0879l-0.4882,-2.3467c-0.4315,-0.208 -0.8505,-0.4411 -1.2539,-0.6992l-2.3213,0.7656c-0.198,0.0623 -0.4048,0.0931 -0.6123,0.0918c-0.3339,-0.0023 -0.662,-0.0883 -0.9541,-0.25c-0.2891,-0.161 -0.5309,-0.3953 -0.7002,-0.6796l-2.2579,-3.7266c-0.2345,-0.3756 -0.324,-0.8238 -0.2519,-1.2607c0.0722,-0.4368 0.3008,-0.8322 0.6435,-1.1124l1.8067,-2.2822v-0.708l-1.8086,-1.6103c-0.3337,-0.2786 -0.557,-0.668 -0.6289,-1.0967c-0.0718,-0.4287 0.0126,-0.8691 0.2373,-1.2412l2.2578,-3.7237c0.1691,-0.285 0.4108,-0.5209 0.7002,-0.6826c0.2921,-0.1616 0.6203,-0.2476 0.9541,-0.25c0.2056,-0.0129 0.4125,0.0066 0.6123,0.0567l2.2754,0.7998c0.4067,-0.26 0.8286,-0.4929 1.2646,-0.6983l0.4874,-2.3457c0.0893,-0.4311 0.3289,-0.8167 0.6757,-1.0879c0.3522,-0.2757 0.7892,-0.4213 1.2364,-0.4121zM24.5006,19.5c-1.3261,0 -2.5985,0.5272 -3.5362,1.4649c-0.9374,0.9376 -1.4637,2.2093 -1.4638,3.5351c0,1.3261 0.5262,2.5985 1.4638,3.5362c0.9377,0.9377 2.2101,1.4638 3.5362,1.4638c1.3259,0 2.5975,-0.5263 3.5351,-1.4638c0.9377,-0.9377 1.4649,-2.2101 1.4649,-3.5362c-0.0001,-1.3259 -0.5273,-2.5975 -1.4649,-3.5351c-0.9376,-0.9376 -2.2091,-1.4648 -3.5351,-1.4649z" fill="url(#color-1)" stroke="none" stroke-width="1"></path><path d="M26.7154,11.501v1h0.0103l0.0102,-0.0002zM27.9508,11.9131l0.6164,-0.7874v0zM28.6266,13.001l-0.9805,0.197l0.0014,0.0068zM29.1148,15.3467l-0.979,0.2038l0.1011,0.4854l0.4475,0.2134zM30.3687,16.0469l-0.5424,0.8401l0.4011,0.259l0.4535,-0.149zM32.693,15.2832l-0.3094,-0.9509l-0.0028,0.0009zM33.4937,15.1963l0.0993,-0.995l-0.0003,-0.0001zM34.2613,15.4385l0.4924,-0.8704l-0.0017,-0.0009zM34.9605,16.1192l0.8554,-0.5181l-0.0006,-0.0009zM37.2174,19.8448l-0.8553,0.5181l0.0061,0.0101l0.0064,0.01zM37.482,21.1006l0.9884,0.1518l0.0001,-0.0002zM36.8531,22.2188l-0.6428,-0.7661l-0.0058,0.005zM35.0172,23.7832l-0.6486,-0.7611l-0.3514,0.2995v0.4616zM35.0172,25.209h-1v0.4486l0.335,0.2983zM36.8248,26.8184l-0.665,0.7469l0.012,0.0106l0.0123,0.0103zM37.4537,27.9151l0.9862,-0.1654v0zM37.2174,29.1563l-0.8564,-0.5166l-0.0066,0.0113zM35.0367,32.8809l0.86,0.5104l0.003,-0.0051zM34.3365,33.5625l0.4841,0.8751l0.0036,-0.002zM33.3814,33.8125l0.0062,1h0.0002zM32.7691,33.7207l-0.3133,0.9497l0.0068,0.0022l0.0067,0.0022zM30.4547,32.9571l0.3133,-0.9497l-0.4523,-0.1492l-0.4009,0.2571zM29.191,33.6543l-0.425,-0.9051l-0.4527,0.2125l-0.1015,0.4897zM28.7047,36.001l0.9789,0.2042l0.0003,-0.0012zM28.0269,37.0889l-0.6144,-0.7889l-0.0019,0.0015zM26.7906,37.501l0.0207,-0.9998l-0.0103,-0.0002h-0.0104zM22.2769,37.501v-1h-0.0103l-0.0103,0.0002zM21.0406,37.0889l0.6164,-0.7874l-0.0006,-0.0005zM20.3648,36.001l0.9792,-0.2031l-0.0001,-0.0006zM19.8766,33.6543l0.979,-0.2037l-0.1005,-0.4828l-0.4442,-0.2142zM18.6227,32.9551l0.5387,-0.8424l-0.4005,-0.2562l-0.4515,0.1489zM16.3014,33.7207l0.2999,0.9541l0.0133,-0.0044zM15.6891,33.8125l-0.0072,1h0.0011zM14.735,33.5625l-0.4868,0.8736l0.0026,0.0014zM14.0348,32.8829l0.8591,-0.5119l-0.0039,-0.0063zM11.7769,29.1563l0.8554,-0.5182l-0.0072,-0.0116zM11.525,27.8956l-0.9866,-0.1631v0.0001zM12.1685,26.7832l0.633,0.7743l0.0839,-0.0686l0.0672,-0.085zM13.9752,24.501l0.7841,0.6207l0.2159,-0.2728v-0.3479zM13.9752,23.793h1v-0.4485l-0.335,-0.2983zM12.1666,22.1827l0.665,-0.7469l-0.0119,-0.0106l-0.0123,-0.0102zM11.5377,21.086l-0.9863,0.1651l0.0001,0.0002zM11.775,19.8448l-0.8551,-0.5185l-0.001,0.0016zM14.0328,16.1211l0.8551,0.5185l0.0049,-0.0082zM14.733,15.4385l-0.4841,-0.875l-0.0036,0.002zM15.6871,15.1885l0.0072,1l0.0279,-0.0002l0.0278,-0.0018zM16.2994,15.2452l0.3316,-0.9435l-0.0436,-0.0153l-0.045,-0.0113zM18.5748,16.045l-0.3316,0.9434l0.4597,0.1616l0.4106,-0.2625zM19.8394,15.3467l0.4261,0.9047l0.4515,-0.2126l0.1015,-0.4887zM20.3268,13.001l0.979,0.2034l0.0001,-0.0004zM21.0025,11.9131l0.616,0.7878l0.0005,-0.0004zM22.2389,11.501l-0.0207,0.9998l0.0103,0.0002h0.0104zM24.5006,19.5v-1v0zM20.9644,20.9649l-0.7071,-0.7071v0zM19.5006,24.5h-1v0zM20.9644,28.0362l-0.7071,0.7071v0zM24.5006,29.5v1v0zM28.0357,28.0362l0.7071,0.7071v0zM29.5006,24.5h1v0zM28.0357,20.9649l0.7071,-0.7071v0zM26.7154,11.501l0.0205,0.9998c0.2163,-0.0044 0.4277,0.066 0.5985,0.1997l0.6164,-0.7874l0.6164,-0.7874c-0.5334,-0.4175 -1.1945,-0.6383 -1.8722,-0.6245zM27.9508,11.9131l-0.6165,0.7874c0.166,0.13 0.2738,0.3083 0.3119,0.4975l0.9804,-0.197l0.9804,-0.197c-0.134,-0.6667 -0.5058,-1.2602 -1.0398,-1.6783zM28.6266,13.001l-0.9791,0.2038l0.4883,2.3457l0.979,-0.2038l0.9791,-0.2038l-0.4883,-2.3457zM29.1148,15.3467l-0.4304,0.9026c0.3944,0.1882 0.775,0.4008 1.1419,0.6377l0.5424,-0.8401l0.5425,-0.8401c-0.4384,-0.283 -0.8938,-0.5375 -1.3659,-0.7627zM30.3687,16.0469l0.3122,0.9501l2.3242,-0.7637l-0.3121,-0.9501l-0.3122,-0.95l-2.3242,0.7637zM32.693,15.2832l0.3093,0.951c0.1272,-0.0414 0.2611,-0.0558 0.3924,-0.0428l0.099,-0.9951l0.099,-0.9951c-0.4085,-0.0406 -0.8204,0.0047 -1.2091,0.1311zM33.4937,15.1963l-0.0992,0.9951c0.1331,0.0133 0.2613,0.0538 0.3762,0.1185l0.4906,-0.8714l0.4907,-0.8713c-0.3576,-0.2014 -0.7526,-0.3254 -1.159,-0.3659zM34.2613,15.4385l-0.4923,0.8704c0.1362,0.0771 0.2526,0.1907 0.3368,0.3293l0.8547,-0.519l0.8548,-0.519c-0.2558,-0.4214 -0.618,-0.7811 -1.0616,-1.0321zM34.9605,16.1192l-0.8553,0.5181l2.2569,3.7256l0.8553,-0.5181l0.8553,-0.5181l-2.2568,-3.7256zM37.2174,19.8448l-0.8428,0.5382c0.1067,0.1671 0.1493,0.3685 0.119,0.5661l0.9884,0.1515l0.9885,0.1516c0.1036,-0.6759 -0.0414,-1.3679 -0.4103,-1.9456zM37.482,21.1006l-0.9884,-0.1517c-0.0302,0.197 -0.131,0.3761 -0.2833,0.5039l0.6428,0.766l0.6428,0.766c0.5246,-0.4402 0.8707,-1.0561 0.9745,-1.7324zM36.8531,22.2188l-0.6486,-0.7611l-1.8359,1.5644l0.6486,0.7611l0.6486,0.7612l1.8359,-1.5645zM35.0172,23.7832h-1v1.4258h1h1v-1.4258zM35.0172,25.209l-0.665,0.7469l1.8076,1.6094l0.665,-0.7469l0.665,-0.7469l-1.8077,-1.6093zM36.8248,26.8184l-0.6407,0.7678c0.1502,0.1254 0.2509,0.3009 0.2834,0.4943l0.9862,-0.1654l0.9862,-0.1654c-0.1114,-0.6642 -0.457,-1.2673 -0.9744,-1.6991zM37.4537,27.9151l-0.9862,0.1653c0.0324,0.1936 -0.0054,0.392 -0.1064,0.5594l0.8563,0.5165l0.8562,0.5165c0.3481,-0.577 0.4776,-1.2593 0.3663,-1.9231zM37.2174,29.1563l-0.863,-0.5053l-2.1807,3.7247l0.863,0.5052l0.863,0.5053l2.1807,-3.7247zM35.0367,32.8809l-0.8599,-0.5104c-0.0789,0.1328 -0.1919,0.243 -0.328,0.319l0.4877,0.873l0.4877,0.8731c0.4426,-0.2473 0.813,-0.6072 1.0725,-1.0443zM34.3365,33.5625l-0.484,-0.875c-0.1466,0.0811 -0.3107,0.124 -0.4775,0.1251l0.0064,0.9999l0.0064,1c0.5019,-0.0032 0.9943,-0.1324 1.4328,-0.3749zM33.3814,33.8125l-0.0061,-0.9999c-0.1045,0.0006 -0.2081,-0.015 -0.3064,-0.0459l-0.2998,0.954l-0.2998,0.9541c0.2976,0.0935 0.6078,0.1396 0.9183,0.1377zM32.7691,33.7207l0.3134,-0.9496l-2.3145,-0.7637l-0.3133,0.9497l-0.3134,0.9496l2.3145,0.7637zM30.4547,32.9571l-0.5399,-0.8418c-0.3676,0.2358 -0.7506,0.4469 -1.1488,0.6339l0.425,0.9051l0.425,0.9052c0.4761,-0.2235 0.9359,-0.4767 1.3786,-0.7607zM29.191,33.6543l-0.9792,-0.2029l-0.4863,2.3467l0.9792,0.2029l0.9792,0.203l0.4863,-2.3467zM28.7047,36.001l-0.979,-0.2041c-0.0416,0.1999 -0.1528,0.3781 -0.3132,0.5031l0.6144,0.7889l0.6145,0.789c0.535,-0.4167 0.904,-1.0098 1.0422,-1.6727zM28.0269,37.0889l-0.6163,-0.7874c-0.1707,0.1336 -0.3827,0.2042 -0.5993,0.1997l-0.0207,0.9998l-0.0207,0.9998c0.6777,0.014 1.3398,-0.2067 1.8734,-0.6244zM26.7906,37.501v-1h-4.5137v1v1h4.5137zM22.2769,37.501l-0.0206,-0.9998c-0.2167,0.0045 -0.4286,-0.0661 -0.5993,-0.1997l-0.6164,0.7874l-0.6164,0.7874c0.5337,0.4179 1.1958,0.6385 1.8734,0.6245zM21.0406,37.0889l0.6158,-0.7879c-0.1602,-0.1252 -0.271,-0.3035 -0.3124,-0.5031l-0.9792,0.2031l-0.9791,0.2031c0.1375,0.6627 0.5055,1.2556 1.0391,1.6727zM20.3648,36.001l0.9791,-0.2037l-0.4883,-2.3467l-0.979,0.2037l-0.9791,0.2038l0.4883,2.3466zM19.8766,33.6543l0.4343,-0.9007c-0.3963,-0.1911 -0.7804,-0.4049 -1.1495,-0.6409l-0.5387,0.8424l-0.5388,0.8425c0.4379,0.28 0.8918,0.5325 1.3583,0.7575zM18.6227,32.9551l-0.3133,-0.9497l-2.3213,0.7657l0.3133,0.9496l0.3132,0.9497l2.3213,-0.7656zM16.3014,33.7207l-0.2999,-0.9539c-0.0982,0.0308 -0.2018,0.0464 -0.3064,0.0458l-0.006,0.9999l-0.0061,1c0.3104,0.0019 0.6205,-0.0442 0.9182,-0.1378zM15.6891,33.8125l0.0071,-0.9999c-0.167,-0.0012 -0.331,-0.0442 -0.4771,-0.125l-0.4841,0.8749l-0.4842,0.875c0.4383,0.2425 0.9303,0.3714 1.4311,0.375zM14.735,33.5625l0.4867,-0.8735c-0.136,-0.0758 -0.249,-0.1856 -0.3279,-0.318l-0.859,0.5119l-0.8591,0.5118c0.2599,0.4362 0.6303,0.795 1.0725,1.0414zM14.0348,32.8829l0.8552,-0.5182l-2.2578,-3.7266l-0.8553,0.5182l-0.8552,0.5182l2.2578,3.7265zM11.7769,29.1563l0.8482,-0.5298c-0.1056,-0.169 -0.146,-0.371 -0.1135,-0.568l-0.9866,-0.1629l-0.9866,-0.163c-0.1118,0.6768 0.0268,1.3714 0.3904,1.9535zM11.525,27.8956l0.9866,0.163c0.0326,-0.197 0.1356,-0.3751 0.2899,-0.5011l-0.633,-0.7743l-0.6329,-0.7742c-0.5312,0.4343 -0.8854,1.0471 -0.9972,1.7235zM12.1685,26.7832l0.7841,0.6207l1.8067,-2.2822l-0.7841,-0.6207l-0.7841,-0.6207l-1.8066,2.2823zM13.9752,24.501h1v-0.708h-1h-1v0.708zM13.9752,23.793l0.665,-0.7468l-1.8086,-1.6104l-0.665,0.7469l-0.665,0.7468l1.8086,1.6104zM12.1666,22.1827l0.6408,-0.7677c-0.1504,-0.1256 -0.2511,-0.3013 -0.2835,-0.4944l-0.9862,0.1654l-0.9862,0.1653c0.1113,0.6644 0.4572,1.2674 0.9742,1.699zM11.5377,21.086l0.9863,-0.1651c-0.0323,-0.1926 0.0056,-0.3911 0.1071,-0.5593l-0.8561,-0.5168l-0.8561,-0.5169c-0.3478,0.5762 -0.4788,1.2583 -0.3675,1.9232zM11.775,19.8448l0.8551,0.5185l2.2578,-3.7237l-0.8551,-0.5185l-0.8551,-0.5184l-2.2578,3.7236zM14.0328,16.1211l0.86,0.5103c0.0795,-0.134 0.193,-0.2445 0.3279,-0.3199l-0.4877,-0.873l-0.4877,-0.873c-0.4438,0.2479 -0.8137,0.6092 -1.0725,1.0454zM14.733,15.4385l0.4841,0.875c0.1461,-0.0808 0.3103,-0.1238 0.4772,-0.125l-0.0072,-1l-0.0072,-1c-0.5007,0.0036 -0.9929,0.1326 -1.431,0.375zM15.6871,15.1885l0.0629,0.998c0.1009,-0.0063 0.2046,0.0032 0.3064,0.0287l0.243,-0.97l0.243,-0.9701c-0.2978,-0.0746 -0.6078,-0.1042 -0.9182,-0.0846zM16.2994,15.2452l-0.3316,0.9434l2.2754,0.7998l0.3316,-0.9434l0.3316,-0.9434l-2.2754,-0.7999zM18.5748,16.045l0.5387,0.8425c0.3704,-0.2369 0.7548,-0.449 1.152,-0.6361l-0.4261,-0.9047l-0.426,-0.9047c-0.4748,0.2236 -0.9344,0.4773 -1.3773,0.7604zM19.8394,15.3467l0.9791,0.2034l0.4873,-2.3457l-0.979,-0.2034l-0.9791,-0.2034l-0.4873,2.3457zM20.3268,13.001l0.9791,0.203c0.0413,-0.1992 0.1522,-0.3777 0.3126,-0.5031l-0.616,-0.7878l-0.6159,-0.7877c-0.5332,0.4169 -0.9016,1.0097 -1.039,1.6726zM21.0025,11.9131l0.6165,0.7874c0.1706,-0.1335 0.3825,-0.2042 0.5992,-0.1997l0.0207,-0.9998l0.0206,-0.9998c-0.6776,-0.014 -1.3397,0.2067 -1.8734,0.6245zM22.2389,11.501v1h4.4765v-1v-1h-4.4765zM24.5006,19.5v-1c-1.5914,0 -3.1181,0.6326 -4.2433,1.7578l0.7071,0.7071l0.7072,0.7071c0.7501,-0.7502 1.7682,-1.172 2.829,-1.172zM20.9644,20.9649l-0.7071,-0.7071c-1.1251,1.1253 -1.7566,2.6514 -1.7567,4.2422h1l1,0.0001c0,-1.0609 0.4212,-2.0782 1.171,-2.8281zM19.5006,24.5h-1c0,1.5909 0.6313,3.1178 1.7567,4.2433l0.7071,-0.7071l0.7072,-0.7071c-0.7499,-0.7499 -1.171,-1.7678 -1.171,-2.8291zM20.9644,28.0362l-0.7071,0.7071c1.1256,1.1255 2.6524,1.7567 4.2433,1.7567v-1v-1c-1.0613,0 -2.0792,-0.4211 -2.829,-1.1709zM24.5006,29.5v1c1.5909,0 3.1169,-0.6315 4.2422,-1.7567l-0.7071,-0.7071l-0.707,-0.7072c-0.75,0.7499 -1.7672,1.171 -2.8282,1.171zM28.0357,28.0362l0.7071,0.7071c1.1252,-1.1252 1.7578,-2.6519 1.7578,-4.2433h-1h-1c0,1.0608 -0.4218,2.0789 -1.172,2.8291zM29.5006,24.5h1c-0.0001,-1.5914 -0.6328,-3.1172 -1.7578,-4.2422l-0.7071,0.7071l-0.7071,0.7071c0.7503,0.7502 1.1719,1.7675 1.172,2.8281zM28.0357,20.9649l0.7071,-0.7071c-1.1249,-1.125 -2.6508,-1.7577 -4.2422,-1.7578v1l-0.0001,1c1.0606,0.0001 2.0779,0.4218 2.8281,1.172z" fill-opacity="0.1" fill="url(#color-2)" stroke="none" stroke-width="1"></path><circle cx="24.5002" cy="24.5002" r="6.5" fill="none" stroke-opacity="0.9" stroke="#ffffff" stroke-width="2"></circle><circle cx="24.5002" cy="24.5002" r="5.5" fill="none" stroke="#02123d" stroke-width="2"></circle></g></g></g></svg>