<svg width="60" height="61" viewBox="0 0 60 61" fill="none" xmlns="http://www.w3.org/2000/svg">
<g clip-path="url(#clip0_120_6860)">
<rect y="0.883209" width="60" height="60" rx="10" fill="#FCE5E5"/>
<path d="M25.5 15.5832H34.5V47.0832C34.5 48.0773 33.6941 48.8832 32.7 48.8832H27.3C26.3059 48.8832 25.5 48.0773 25.5 47.0832V15.5832Z" fill="url(#paint0_linear_120_6860)"/>
<path d="M25.5 15.5832H31.8V47.0832C31.8 48.0773 30.9941 48.8832 30 48.8832H27.3C26.3059 48.8832 25.5 48.0773 25.5 47.0832V15.5832Z" fill="url(#paint1_linear_120_6860)" fill-opacity="0.2"/>
<path d="M25.5 38.0832H34.5V47.0832C34.5 48.0773 33.6941 48.8832 32.7 48.8832H27.3C26.3059 48.8832 25.5 48.0773 25.5 47.0832V38.0832Z" fill="url(#paint2_linear_120_6860)" fill-opacity="0.6"/>
<path d="M34.2754 38.3078V47.0832C34.2754 47.953 33.57 48.6583 32.7002 48.6584H27.2998C26.43 48.6583 25.7246 47.953 25.7246 47.0832V38.3078H34.2754Z" stroke="url(#paint3_linear_120_6860)" stroke-opacity="0.2" stroke-width="0.45"/>
<g clip-path="url(#clip1_120_6860)">
<rect x="12" y="14.6832" width="36" height="27" rx="3.6" fill="#FF8B8B"/>
</g>
<rect x="12.225" y="14.9082" width="35.55" height="26.55" rx="3.375" stroke="url(#paint4_linear_120_6860)" stroke-opacity="0.1" stroke-width="0.45"/>
<path d="M15.5996 15.358H44.4004C46.0155 15.3582 47.325 16.6677 47.3252 18.2828V37.4078H12.6748V18.2828L12.6787 18.1324C12.7572 16.5872 14.0349 15.3582 15.5996 15.358Z" fill="url(#paint5_linear_120_6860)" stroke="#FF8B8B" stroke-width="1.35"/>
<path d="M21 24.583C21 23.5889 21.8059 22.783 22.8 22.783C23.7941 22.783 24.6 23.5889 24.6 24.583V32.683C24.6 33.1801 24.1971 33.583 23.7 33.583H21.9C21.4029 33.583 21 33.1801 21 32.683V24.583Z" fill="url(#paint6_linear_120_6860)"/>
<path d="M22.7998 22.9178C23.7193 22.9178 24.4647 23.6634 24.4648 24.5828V32.6834C24.4646 33.1057 24.1225 33.448 23.7002 33.4481H21.9004C21.478 33.4481 21.135 33.1057 21.1348 32.6834V24.5828C21.1349 23.6634 21.8804 22.9179 22.7998 22.9178Z" stroke="url(#paint7_linear_120_6860)" stroke-opacity="0.2" stroke-width="0.27"/>
<path d="M28.2 21.883C28.2 20.8889 29.0059 20.083 30 20.083C30.9941 20.083 31.8 20.8889 31.8 21.883V32.683C31.8 33.1801 31.3971 33.583 30.9 33.583H29.1C28.603 33.583 28.2 33.1801 28.2 32.683V21.883Z" fill="url(#paint8_linear_120_6860)" fill-opacity="0.9"/>
<path d="M29.9998 20.2178C30.9193 20.2178 31.6648 20.9633 31.6649 21.8828V32.6826C31.6649 33.105 31.3226 33.4481 30.9002 33.4482H29.1004C28.6779 33.4482 28.3348 33.1051 28.3348 32.6826V21.8828C28.3349 20.9634 29.0804 20.2179 29.9998 20.2178Z" stroke="url(#paint9_linear_120_6860)" stroke-opacity="0.2" stroke-width="0.27"/>
<path d="M35.4 27.283C35.4 26.2889 36.2059 25.483 37.2 25.483C38.1941 25.483 39 26.2889 39 27.283V32.683C39 33.18 38.5971 33.583 38.1 33.583H36.3C35.8029 33.583 35.4 33.18 35.4 32.683V27.283Z" fill="url(#paint10_linear_120_6860)" fill-opacity="0.7"/>
<path d="M37.1998 25.6177C38.1193 25.6177 38.8647 26.3633 38.8648 27.2828V32.6832C38.8647 33.1055 38.5225 33.4477 38.1002 33.4478H36.3004C35.878 33.4478 35.5349 33.1056 35.5348 32.6832V27.2828C35.5349 26.3634 36.2804 25.6178 37.1998 25.6177Z" stroke="url(#paint11_linear_120_6860)" stroke-opacity="0.2" stroke-width="0.27"/>
</g>
<defs>
<linearGradient id="paint0_linear_120_6860" x1="30" y1="31.3332" x2="30" y2="46.6332" gradientUnits="userSpaceOnUse">
<stop stop-color="#AB2121"/>
<stop offset="1" stop-color="#FF8B8B"/>
</linearGradient>
<linearGradient id="paint1_linear_120_6860" x1="29.595" y1="45.2832" x2="25.5" y2="45.2832" gradientUnits="userSpaceOnUse">
<stop stop-color="white" stop-opacity="0"/>
<stop offset="1" stop-color="white"/>
</linearGradient>
<linearGradient id="paint2_linear_120_6860" x1="29.1" y1="38.6832" x2="29.1" y2="51.8832" gradientUnits="userSpaceOnUse">
<stop stop-color="#BA2529"/>
<stop offset="0.552005" stop-color="#BA2529" stop-opacity="0.447995"/>
<stop offset="1" stop-color="#BA2529" stop-opacity="0"/>
</linearGradient>
<linearGradient id="paint3_linear_120_6860" x1="33.6" y1="45.4937" x2="24.15" y2="44.1437" gradientUnits="userSpaceOnUse">
<stop stop-color="white" stop-opacity="0"/>
<stop offset="1" stop-color="white"/>
</linearGradient>
<linearGradient id="paint4_linear_120_6860" x1="30" y1="38.2937" x2="30" y2="41.6832" gradientUnits="userSpaceOnUse">
<stop stop-color="white" stop-opacity="0"/>
<stop offset="1" stop-color="white"/>
</linearGradient>
<linearGradient id="paint5_linear_120_6860" x1="30" y1="14.6832" x2="30" y2="100.327" gradientUnits="userSpaceOnUse">
<stop offset="0.161219" stop-color="white"/>
<stop offset="0.833837" stop-color="white" stop-opacity="0"/>
</linearGradient>
<linearGradient id="paint6_linear_120_6860" x1="22.8" y1="17.383" x2="22.8" y2="41.683" gradientUnits="userSpaceOnUse">
<stop stop-color="#F13673"/>
<stop offset="1" stop-color="#FF9911"/>
</linearGradient>
<linearGradient id="paint7_linear_120_6860" x1="21" y1="28.183" x2="22.8" y2="28.183" gradientUnits="userSpaceOnUse">
<stop stop-color="white"/>
<stop offset="1" stop-color="white" stop-opacity="0"/>
</linearGradient>
<linearGradient id="paint8_linear_120_6860" x1="30" y1="20.083" x2="30" y2="33.583" gradientUnits="userSpaceOnUse">
<stop stop-color="#F44B5F"/>
<stop offset="1" stop-color="#FF9E71"/>
</linearGradient>
<linearGradient id="paint9_linear_120_6860" x1="28.2" y1="26.833" x2="30.45" y2="26.833" gradientUnits="userSpaceOnUse">
<stop stop-color="white"/>
<stop offset="1" stop-color="white" stop-opacity="0"/>
</linearGradient>
<linearGradient id="paint10_linear_120_6860" x1="37.2" y1="25.483" x2="37.2" y2="33.583" gradientUnits="userSpaceOnUse">
<stop stop-color="#FF8C98"/>
<stop offset="1" stop-color="#FFC2A8"/>
</linearGradient>
<linearGradient id="paint11_linear_120_6860" x1="35.4" y1="29.533" x2="37.65" y2="29.533" gradientUnits="userSpaceOnUse">
<stop stop-color="white"/>
<stop offset="1" stop-color="white" stop-opacity="0"/>
</linearGradient>
<clipPath id="clip0_120_6860">
<rect y="0.883209" width="60" height="60" rx="10" fill="white"/>
</clipPath>
<clipPath id="clip1_120_6860">
<rect x="12" y="14.6832" width="36" height="27" rx="3.6" fill="white"/>
</clipPath>
</defs>
</svg>
