<svg version="1.1" xmlns="http://www.w3.org/2000/svg" xmlns:xlink="http://www.w3.org/1999/xlink" width="50" height="50" viewBox="0,0,256,256"><defs><clipPath id="clip-1"><rect x="0" y="0" width="50" height="50" rx="10" ry="0" id="clip0_170_11018" fill="none"></rect></clipPath><linearGradient x1="25" y1="11" x2="25" y2="37" gradientUnits="userSpaceOnUse" id="color-1"><stop offset="0" stop-color="#112c7c"></stop><stop offset="0.82604" stop-color="#3049e7"></stop></linearGradient></defs><g fill="none" fill-rule="nonzero" stroke="none" stroke-width="1" stroke-linecap="butt" stroke-linejoin="miter" stroke-miterlimit="10" stroke-dasharray="" stroke-dashoffset="0" font-family="none" font-weight="none" font-size="none" text-anchor="none" style="mix-blend-mode: normal"><g transform="scale(5.12,5.12)"><g clip-path="url(#clip-1)"><rect x="0" y="0" width="50" height="50" rx="10" ry="0" fill-opacity="0.4" fill="#e5e7eb"></rect><path d="M27.566,30h-12.7852c-0.4589,0 -0.8589,0.3123 -0.9702,0.7575l-1.3458,5.3832c-0.196,0.7841 0.5709,1.4648 1.3262,1.177l14.131,-5.3832c1.0376,-0.3953 0.7543,-1.9345 -0.356,-1.9345z" fill="#091c91"></path><circle cx="25" cy="24" r="13" fill="url(#color-1)"></circle><rect x="18" y="23" width="2.5" height="2.5" rx="1.25" ry="0" fill="#ffffff"></rect><rect x="23.8333" y="23.0001" width="2.5" height="2.5" rx="1.25" ry="0" fill="#ffffff"></rect><rect x="29.6667" y="23" width="2.5" height="2.5" rx="1.25" ry="0" fill="#ffffff"></rect></g></g></g></svg>