<svg width="20" height="20" viewBox="0 0 20 20" fill="none" xmlns="http://www.w3.org/2000/svg">
<path d="M7 7V8.5H3.5V7H7ZM7 3.5H3.5V8.5L3.34668 8.49219C2.64069 8.42051 2.07949 7.85931 2.00781 7.15332L2 7V3.5C2 2.72334 2.59028 2.08461 3.34668 2.00781L3.5 2H7L7.15332 2.00781C7.90972 2.08461 8.5 2.72334 8.5 3.5V7L8.49219 7.15332C8.42051 7.85931 7.85931 8.42051 7.15332 8.49219L7 8.5V3.5Z" fill="#374151"/>
<path d="M7 16.5V18H3.5V16.5H7ZM7 13H3.5V18L3.34668 17.9922C2.64069 17.9205 2.07949 17.3593 2.00781 16.6533L2 16.5V13C2 12.2233 2.59028 11.5846 3.34668 11.5078L3.5 11.5H7L7.15332 11.5078C7.90972 11.5846 8.5 12.2233 8.5 13V16.5L8.49219 16.6533C8.42051 17.3593 7.85931 17.9205 7.15332 17.9922L7 18V13Z" fill="#374151"/>
<path d="M11 3.25C11 2.83579 11.3358 2.5 11.75 2.5H17.25C17.6642 2.5 18 2.83579 18 3.25C18 3.66421 17.6642 4 17.25 4H11.75C11.3358 4 11 3.66421 11 3.25Z" fill="#374151"/>
<path d="M11 7.75C11 7.33579 11.3358 7 11.75 7H17.25C17.6642 7 18 7.33579 18 7.75C18 8.16421 17.6642 8.5 17.25 8.5H11.75C11.3358 8.5 11 8.16421 11 7.75Z" fill="#374151"/>
<path d="M11 12.25C11 11.8358 11.3358 11.5 11.75 11.5H17.25C17.6642 11.5 18 11.8358 18 12.25C18 12.6642 17.6642 13 17.25 13H11.75C11.3358 13 11 12.6642 11 12.25Z" fill="#374151"/>
<path d="M11 16.75C11 16.3358 11.3358 16 11.75 16H17.25C17.6642 16 18 16.3358 18 16.75C18 17.1642 17.6642 17.5 17.25 17.5H11.75C11.3358 17.5 11 17.1642 11 16.75Z" fill="#374151"/>
</svg>
