<svg width="24" height="24" viewBox="0 0 24 24" fill="none" xmlns="http://www.w3.org/2000/svg">
<path d="M14.8521 5.23346L14.856 5.15729C14.8942 4.7789 15.2136 4.48346 15.6021 4.48346C15.9905 4.48346 16.3099 4.7789 16.3481 5.15729L16.3521 5.23346L16.3521 13.668C16.3521 14.0822 16.0163 14.418 15.6021 14.418C15.1878 14.418 14.8521 14.0822 14.8521 13.668L14.8521 5.23346Z" fill="#374151"/>
<path d="M20 6.31851L20 12.2052C19.9998 13.4994 19.0162 14.5634 17.7559 14.6916L17.5 14.7052L15.1807 14.7052L12.1689 19.2394C11.5362 20.1922 10.2298 20.4107 9.32129 19.716C8.12155 18.7985 7.6418 17.2175 8.12988 15.7882L8.5 14.7052L7.19824 14.7052C5.26679 14.705 3.83845 12.9058 4.27637 11.0246L5.26758 6.76968L5.31055 6.59976C5.79767 4.85469 7.40527 3.64684 9.23145 3.67788L9.20606 5.17691C8.02815 5.15688 6.99586 5.96224 6.72852 7.10952L5.73731 11.3644L5.70703 11.5402C5.60849 12.414 6.2929 13.205 7.19824 13.2052L8.5 13.2052C8.98403 13.2052 9.4381 13.4385 9.71973 13.8322C10.0013 14.2259 10.0763 14.7315 9.91992 15.1896L9.54981 16.2726L9.50391 16.4269C9.31892 17.1521 9.5519 17.9217 10.1084 18.422L10.2324 18.5246C10.4243 18.6713 10.6898 18.6494 10.8555 18.4875L10.9199 18.4093L13.9307 13.8751C14.2086 13.4565 14.6782 13.2052 15.1807 13.2052L17.5 13.2052C18.0179 13.2052 18.444 12.8112 18.4951 12.3068L18.5 12.2052L18.5 6.31851C18.5 5.77285 18.0622 5.32778 17.5166 5.31851L9.20606 5.17691L9.23145 3.67788L17.543 3.81851C18.8214 3.84048 19.8621 4.8195 19.9873 6.06558L20 6.31851Z" fill="#374151"/>
</svg>
