<svg width="24" height="24" viewBox="0 0 24 24" fill="none" xmlns="http://www.w3.org/2000/svg">
<path d="M9.14807 19.2669L9.14417 19.3431C9.10595 19.7215 8.78654 20.0169 8.39807 20.0169C8.00961 20.0169 7.6902 19.7215 7.65198 19.3431L7.64807 19.2669L7.64807 10.8323C7.64807 10.4181 7.98386 10.0823 8.39807 10.0823C8.81228 10.0823 9.14807 10.4181 9.14807 10.8323L9.14807 19.2669Z" fill="#374151"/>
<path d="M4 18.1395V12.2948C4.00021 11.0006 4.98377 9.93659 6.24414 9.80844L6.5 9.79477H8.81934L11.8311 5.26059C12.4638 4.30783 13.7702 4.08926 14.6787 4.78403C15.8784 5.70148 16.3582 7.28251 15.8701 8.71177L15.5 9.79477H16.7822C18.7197 9.79477 20.1493 11.6043 19.7012 13.4891L18.7314 17.5653L18.6377 17.8973C18.1365 19.4134 16.7756 20.4882 15.1846 20.6249L14.8398 20.6395V19.1395C15.9975 19.1395 17.0043 18.3448 17.2725 17.2186L18.2422 13.1424L18.2734 12.9666C18.3763 12.0905 17.6906 11.2948 16.7822 11.2948H15.5C15.016 11.2948 14.5619 11.0615 14.2803 10.6678C13.9987 10.2741 13.9237 9.76847 14.0801 9.3104L14.4502 8.22739L14.4961 8.07309C14.6811 7.34794 14.4481 6.57834 13.8916 6.07798L13.7676 5.97544C13.5757 5.8287 13.3102 5.85056 13.1445 6.01255L13.0801 6.09067L10.0693 10.6249C9.79136 11.0435 9.32184 11.2948 8.81934 11.2948H6.5C5.94785 11.2948 5.50022 11.7427 5.5 12.2948V18.1395C5.5 18.6918 5.94771 19.1395 6.5 19.1395V20.6395L6.24414 20.6268C5.06772 20.5072 4.13227 19.5718 4.0127 18.3954L4 18.1395ZM14.8398 19.1395V20.6395H6.5V19.1395H14.8398Z" fill="#374151"/>
</svg>
