<?xml version="1.0" encoding="UTF-8"?>
<svg version="1.1" xmlns="http://www.w3.org/2000/svg" width="228" height="228">
<path d="M0 0 C75.24 0 150.48 0 228 0 C228 75.24 228 150.48 228 228 C152.76 228 77.52 228 0 228 C0 152.76 0 77.52 0 0 Z " fill="#6CA1F9" transform="translate(0,0)"/>
<path d="M0 0 C0.33 0 0.66 0 1 0 C1.20913076 9.62301842 1.36874288 19.24524724 1.46630955 28.87004757 C1.51315355 33.34004785 1.57661628 37.80848642 1.67895508 42.27758789 C1.77721768 46.5960311 1.83065372 50.91297892 1.85389519 55.2324543 C1.87044235 56.87478734 1.90275809 58.51704438 1.95157051 60.15873528 C2.31872908 73.02668506 2.31872908 73.02668506 -0.95803833 77.92996216 C-3.19643161 80.15996335 -5.5189115 82.05178914 -8 84 C-8.54929672 84.7356871 -9.09859344 85.47137421 -9.66453552 86.22935486 C-10.1052388 86.81366776 -10.54594208 87.39798065 -11 88 C-11.66 88 -12.32 88 -13 88 C-13.21914062 88.53882813 -13.43828125 89.07765625 -13.6640625 89.6328125 C-15.45312792 92.80291088 -17.87519115 95.2633576 -20.375 97.875 C-23.29703501 100.92985479 -25.85097159 103.76353425 -28.1171875 107.359375 C-28.73851562 108.23078125 -29.35984375 109.1021875 -30 110 C-33.75 110.375 -33.75 110.375 -37 110 C-37.33 110.66 -37.66 111.32 -38 112 C-38.33 110.68 -38.66 109.36 -39 108 C-40.98 108.99 -40.98 108.99 -43 110 C-42.505 108.515 -42.505 108.515 -42 107 C-43.65 106.67 -45.3 106.34 -47 106 C-46.0022242 108.99332739 -45.2477975 109.94766315 -43 112 C-46.39201748 113.04369769 -49.46529295 113.07363973 -53 113 C-54.32 113 -55.64 113 -57 113 C-57 113.99 -57 114.98 -57 116 C-55.7763932 116.0745356 -55.7763932 116.0745356 -54 115 C-53.3125 116.75 -53.3125 116.75 -53 119 C-54.4375 121.25 -54.4375 121.25 -56 123 C-56.66 122.67 -57.32 122.34 -58 122 C-57.67 121.34 -57.34 120.68 -57 120 C-57.99 120 -58.98 120 -60 120 C-60.99 120.99 -60.99 120.99 -62 122 C-62.99 122.99 -62.99 122.99 -64 124 C-64.99 124 -65.98 124 -67 124 C-67.33 125.65 -67.66 127.3 -68 129 C-69.5 127.75 -69.5 127.75 -71 126 C-71 124.68 -71 123.36 -71 122 C-72.32 121.67 -73.64 121.34 -75 121 C-71.535 120.505 -71.535 120.505 -68 120 C-67.67 119.01 -67.34 118.02 -67 117 C-66.01 116.505 -66.01 116.505 -65 116 C-64.67 115.01 -64.34 114.02 -64 113 C-63.34 113 -62.68 113 -62 113 C-62.33 112.01 -62.66 111.02 -63 110 C-61.515 109.505 -61.515 109.505 -60 109 C-59.505 108.01 -59.505 108.01 -59 107 C-60.65 107 -62.3 107 -64 107 C-64 106.67 -64 106.34 -64 106 C-61.69 106 -59.38 106 -57 106 C-56.61521484 104.92878906 -56.61521484 104.92878906 -56.22265625 103.8359375 C-54.9136142 100.79962909 -53.3205956 98.34122275 -51.4375 95.625 C-37.32240058 74.70440621 -25.44878778 52.04103796 -14.96435547 29.10205078 C-13.97996741 26.95633402 -12.97899718 24.81909483 -11.97265625 22.68359375 C-8.30228702 14.92244572 -8.30228702 14.92244572 -5 7 C-4.34 7 -3.68 7 -3 7 C-2.5359375 5.5459375 -2.5359375 5.5459375 -2.0625 4.0625 C-1 1 -1 1 0 0 Z M-39 112 C-36.69 112.33 -34.38 112.66 -32 113 C-31.67 114.32 -31.34 115.64 -31 117 C-31.639375 117.12375 -32.27875 117.2475 -32.9375 117.375 C-33.9584375 117.684375 -33.9584375 117.684375 -35 118 C-35.33 118.66 -35.66 119.32 -36 120 C-36.45375 119.360625 -36.9075 118.72125 -37.375 118.0625 C-38.83921726 115.90297594 -38.83921726 115.90297594 -41 115 C-40.34 114.01 -39.68 113.02 -39 112 Z " fill="#89B2FD" transform="translate(227,53)"/>
<path d="M0 0 C0.33 0 0.66 0 1 0 C1.07411371 5.49923749 1.12858464 10.99818479 1.16479492 16.49780273 C1.17988873 18.36894799 1.20036589 20.24005783 1.22631836 22.11108398 C1.26267593 24.79940526 1.27972015 27.48725913 1.29296875 30.17578125 C1.30845261 31.01337479 1.32393646 31.85096832 1.33988953 32.71394348 C1.34159036 38.57308951 1.34159036 38.57308951 -0.39628601 40.74504089 C-2 42 -2 42 -4 42 C-4.33 43.98 -4.66 45.96 -5 48 C-5.99 48.33 -6.98 48.66 -8 49 C-8.71562297 50.64623996 -9.36971413 52.31923769 -10 54 C-11.39528755 56.55072639 -12.91845922 59.02143588 -14.4375 61.5 C-15.03014648 62.47646484 -15.03014648 62.47646484 -15.63476562 63.47265625 C-17.33534035 66.27393574 -19.04278219 69.06815193 -20.78515625 71.84375 C-22.1636202 73.87792502 -22.1636202 73.87792502 -22 76 C-22.66 76 -23.32 76 -24 76 C-24.27545654 76.58338135 -24.55091309 77.1667627 -24.8347168 77.76782227 C-26.75457439 81.4454376 -29.32041791 84.63179982 -31.8125 87.9375 C-32.59463867 88.99227539 -32.59463867 88.99227539 -33.39257812 90.06835938 C-37.66703661 95.76230095 -41.79499941 100.38041632 -48 104 C-48.495 104.99 -48.495 104.99 -49 106 C-49.99 105.67 -50.98 105.34 -52 105 C-54.14255793 105.38932856 -54.14255793 105.38932856 -56 106 C-54.7703559 101.90712663 -53.30880024 98.6110415 -50.9375 95.0625 C-37.28719596 74.0706214 -25.37203128 51.8731017 -14.96435547 29.10205078 C-13.97996741 26.95633402 -12.97899718 24.81909483 -11.97265625 22.68359375 C-8.30228702 14.92244572 -8.30228702 14.92244572 -5 7 C-4.34 7 -3.68 7 -3 7 C-2.690625 6.030625 -2.38125 5.06125 -2.0625 4.0625 C-1 1 -1 1 0 0 Z " fill="#7DADFD" transform="translate(227,53)"/>
<path d="M0 0 C-0.33 0.99 -0.66 1.98 -1 3 C-1.66 3 -2.32 3 -3 3 C-3.226875 3.721875 -3.45375 4.44375 -3.6875 5.1875 C-5.24831013 8.53209313 -7.3031287 10.51603959 -10 13 C-10.99 12.34 -11.98 11.68 -13 11 C-13.33 11.99 -13.66 12.98 -14 14 C-15.5625 15.6875 -15.5625 15.6875 -17 17 C-17.99 16.01 -17.99 16.01 -19 15 C-19.33 16.32 -19.66 17.64 -20 19 C-20.33 19 -20.66 19 -21 19 C-21.495 20.485 -21.495 20.485 -22 22 C-22.66 21.67 -23.32 21.34 -24 21 C-24.495 22.485 -24.495 22.485 -25 24 C-25.495 23.01 -25.495 23.01 -26 22 C-26.495 24.475 -26.495 24.475 -27 27 C-27.66 26.67 -28.32 26.34 -29 26 C-29.495 27.485 -29.495 27.485 -30 29 C-30.99 29.33 -31.98 29.66 -33 30 C-33.99 28.35 -34.98 26.7 -36 25 C-36 25.66 -36 26.32 -36 27 C-36.63474075 28.34882408 -37.29848848 29.6846659 -38 31 C-38.99 30.34 -39.98 29.68 -41 29 C-42.66281865 32.52126303 -43.15147474 34.28969251 -42 38 C-42.495 38.99 -42.495 38.99 -43 40 C-54.88 40 -66.76 40 -79 40 C-79 39.67 -79 39.34 -79 39 C-77.10507994 38.66151348 -75.20901534 38.32943089 -73.3125 38 C-72.25675781 37.814375 -71.20101562 37.62875 -70.11328125 37.4375 C-67.35095938 37.04931926 -64.78257957 36.91740024 -62 37 C-62 36.01 -62 35.02 -62 34 C-64.97 33.34 -67.94 32.68 -71 32 C-67.3764512 30.1882256 -64.98405089 29.49809636 -61.0625 28.875 C-60.04285156 28.70742187 -59.02320312 28.53984375 -57.97265625 28.3671875 C-55.27407618 28.03385435 -52.71461065 27.93001004 -50 28 C-50 27.34 -50 26.68 -50 26 C-50.57331055 26.09087891 -51.14662109 26.18175781 -51.73730469 26.27539062 C-72.79900736 29.57024182 -72.79900736 29.57024182 -83 29 C-83 28.67 -83 28.34 -83 28 C-78.53476109 27.42635011 -74.06902227 26.85681301 -69.6027832 26.29101562 C-68.08473691 26.09812455 -66.56683076 25.90412709 -65.04907227 25.70898438 C-62.86250488 25.42804881 -60.67545784 25.15114766 -58.48828125 24.875 C-57.81412674 24.78750488 -57.13997223 24.70000977 -56.44538879 24.60986328 C-52.93518448 24.17082894 -49.53433376 23.9624797 -46 24 C-44.32656552 23.70250054 -42.65694085 23.37872934 -41 23 C-41 22.34 -41 21.68 -41 21 C-42.65 21 -44.3 21 -46 21 C-42.86501708 19.14223235 -40.62528568 18.79859524 -37 19 C-37.66 19.66 -38.32 20.32 -39 21 C-38.01 21.33 -37.02 21.66 -36 22 C-35.67 20.68 -35.34 19.36 -35 18 C-34.01 18 -33.02 18 -32 18 C-32 17.34 -32 16.68 -32 16 C-32.99 15.67 -33.98 15.34 -35 15 C-32.36 14.67 -29.72 14.34 -27 14 C-27 13.34 -27 12.68 -27 12 C-28.32 11.67 -29.64 11.34 -31 11 C-26.545 10.505 -26.545 10.505 -22 10 C-22 9.34 -22 8.68 -22 8 C-23.98 8 -25.96 8 -28 8 C-24.5980513 5.90649311 -21.94727588 5.82057837 -18 6 C-18 5.34 -18 4.68 -18 4 C-19.98 4 -21.96 4 -24 4 C-24 3.67 -24 3.34 -24 3 C-23.21496094 2.95101562 -22.42992187 2.90203125 -21.62109375 2.8515625 C-14.75237721 2.42484768 -14.75237721 2.42484768 -8.0625 0.9375 C-5.17093396 0.05232672 -2.99600436 -0.18157602 0 0 Z " fill="#94B2FD" transform="translate(146,188)"/>
<path d="M0 0 C0 0.66 0 1.32 0 2 C-3.91540608 2.65362754 -7.83252191 3.2964178 -11.75 3.9375 C-12.84183594 4.11990234 -13.93367188 4.30230469 -15.05859375 4.49023438 C-29.1551828 6.78405804 -43.1266887 7.26217878 -57.3815918 7.55761719 C-60.55864085 7.62491825 -63.73531861 7.70279256 -66.91210938 7.78125 C-68.96352769 7.82616404 -71.01495973 7.87045583 -73.06640625 7.9140625 C-74.00005508 7.93796051 -74.93370392 7.96185852 -75.89564514 7.98648071 C-82.32626759 8.10682027 -88.60786523 7.70113042 -95 7 C-94.1837545 9.01569895 -94.1837545 9.01569895 -93 11 C-90.38159615 11.62921955 -90.38159615 11.62921955 -87.4375 11.625 C-84.43359375 11.7265625 -84.43359375 11.7265625 -82 12 C-81.67 12.66 -81.34 13.32 -81 14 C-85.95 14 -90.9 14 -96 14 C-96 9.71 -96 5.42 -96 1 C-95.09592407 1.0169693 -94.19184814 1.0339386 -93.26037598 1.05142212 C-84.67129846 1.21059637 -76.08211279 1.35866611 -67.49263763 1.49477577 C-63.07845734 1.56510129 -58.66442819 1.63947241 -54.25048828 1.72363281 C-49.97767815 1.80494436 -45.70480937 1.8749194 -41.4316864 1.93757248 C-39.81484828 1.96316817 -38.19806552 1.99260704 -36.58137512 2.02626419 C-27.00628798 2.22264485 -17.8400967 1.831677 -8.35656738 0.43832397 C-5.5128029 0.06696538 -2.86026246 -0.08730279 0 0 Z " fill="#6F9AF8" transform="translate(96,214)"/>
<path d="M0 0 C0.33 0 0.66 0 1 0 C1.04938628 4.23582327 1.08571263 8.47149465 1.10986328 12.70751953 C1.11992963 14.14895547 1.1335838 15.59037095 1.15087891 17.03173828 C1.17510012 19.10193934 1.18647641 21.17187076 1.1953125 23.2421875 C1.20578613 24.4885498 1.21625977 25.73491211 1.22705078 27.01904297 C1 30 1 30 -1 32 C-1 31.34 -1 30.68 -1 30 C-1.99 30 -2.98 30 -4 30 C-4.66 30.66 -5.32 31.32 -6 32 C-6.33 31.01 -6.66 30.02 -7 29 C-8.1446875 29.2475 -8.1446875 29.2475 -9.3125 29.5 C-14.10874494 30.39232464 -19.12492237 30 -24 30 C-24 25.80590968 -21.65422094 23.97980537 -19 21 C-18.154375 19.989375 -17.30875 18.97875 -16.4375 17.9375 C-11.17843478 11.80653712 -5.71207157 5.71207157 0 0 Z " fill="#96B8FE" transform="translate(227,132)"/>
<path d="M0 0 C0 3 0 3 -2.375 5.6875 C-5 8 -5 8 -7 8 C-6.0022242 10.99332739 -5.2477975 11.94766315 -3 14 C-6.39201748 15.04369769 -9.46529295 15.07363973 -13 15 C-14.32 15 -15.64 15 -17 15 C-17 15.99 -17 16.98 -17 18 C-15.7763932 18.0745356 -15.7763932 18.0745356 -14 17 C-13.3125 18.75 -13.3125 18.75 -13 21 C-14.4375 23.25 -14.4375 23.25 -16 25 C-16.66 24.67 -17.32 24.34 -18 24 C-17.67 23.34 -17.34 22.68 -17 22 C-17.99 22 -18.98 22 -20 22 C-20.66 22.66 -21.32 23.32 -22 24 C-22.66 24.66 -23.32 25.32 -24 26 C-24.99 26 -25.98 26 -27 26 C-27.33 27.65 -27.66 29.3 -28 31 C-29.5 29.75 -29.5 29.75 -31 28 C-31 26.68 -31 25.36 -31 24 C-32.32 23.67 -33.64 23.34 -35 23 C-31.535 22.505 -31.535 22.505 -28 22 C-27.67 21.01 -27.34 20.02 -27 19 C-26.34 18.67 -25.68 18.34 -25 18 C-24.67 17.01 -24.34 16.02 -24 15 C-23.34 15 -22.68 15 -22 15 C-22.33 14.01 -22.66 13.02 -23 12 C-22.01 11.67 -21.02 11.34 -20 11 C-19.67 10.34 -19.34 9.68 -19 9 C-20.65 9 -22.3 9 -24 9 C-24 8.67 -24 8.34 -24 8 C-21.69 8 -19.38 8 -17 8 C-16.67 7.01 -16.34 6.02 -16 5 C-15.01 5.99 -14.02 6.98 -13 8 C-12.67 7.01 -12.34 6.02 -12 5 C-11.01 5.99 -10.02 6.98 -9 8 C-8.7525 7.38125 -8.505 6.7625 -8.25 6.125 C-6.76327031 3.59755953 -5.65390305 3.12589826 -3 2 C-2.01 1.34 -1.02 0.68 0 0 Z " fill="#98B9FE" transform="translate(187,151)"/>
<path d="M0 0 C1.3303125 0.00773437 1.3303125 0.00773437 2.6875 0.015625 C3.574375 0.01046875 4.46125 0.0053125 5.375 0 C7.6875 0.265625 7.6875 0.265625 9.6875 2.265625 C10 5.265625 10 5.265625 9.6875 8.265625 C6.6875 10.265625 6.6875 10.265625 3.6875 10.265625 C3.6875 11.585625 3.6875 12.905625 3.6875 14.265625 C6.3275 14.265625 8.9675 14.265625 11.6875 14.265625 C11.6875 14.925625 11.6875 15.585625 11.6875 16.265625 C5.7475 16.265625 -0.1925 16.265625 -6.3125 16.265625 C-6.3125 15.605625 -6.3125 14.945625 -6.3125 14.265625 C-3.6725 14.265625 -1.0325 14.265625 1.6875 14.265625 C1.6875 12.945625 1.6875 11.625625 1.6875 10.265625 C0.0375 9.935625 -1.6125 9.605625 -3.3125 9.265625 C-3.9375 5.890625 -3.9375 5.890625 -4.3125 2.265625 C-2.3125 0.265625 -2.3125 0.265625 0 0 Z " fill="#EEF4FE" transform="translate(90.3125,56.734375)"/>
<path d="M0 0 C1.65 0.33 3.3 0.66 5 1 C5.67220351 2.93558599 6.33758077 4.87354372 7 6.8125 C7.556875 8.43091797 7.556875 8.43091797 8.125 10.08203125 C9 13 9 13 9 16 C8.01 16 7.02 16 6 16 C5.67 14.68 5.34 13.36 5 12 C3.02 12 1.04 12 -1 12 C-1.33 13.32 -1.66 14.64 -2 16 C-2.99 16 -3.98 16 -5 16 C-3.90301833 10.30860098 -2.45946923 5.25432063 0 0 Z " fill="#E3EEFE" transform="translate(78,26)"/>
<path d="M0 0 C0.99 0 1.98 0 3 0 C3 1.65 3 3.3 3 5 C4.32 5 5.64 5 7 5 C7 3.35 7 1.7 7 0 C7.99 0 8.98 0 10 0 C10 4.62 10 9.24 10 14 C6.7 14 3.4 14 0 14 C0 9.38 0 4.76 0 0 Z " fill="#C6DCFC" transform="translate(44,57)"/>
<path d="M0 0 C3.18881742 1.178476 4.19283743 2.16544225 5.875 5.0625 C2.905 4.7325 -0.065 4.4025 -3.125 4.0625 C-3.50563221 6.3885857 -3.83769945 8.72305264 -4.125 11.0625 C-3.05854885 12.35883621 -3.05854885 12.35883621 -0.5625 12.125 C0.241875 12.104375 1.04625 12.08375 1.875 12.0625 C2.205 11.4025 2.535 10.7425 2.875 10.0625 C1.885 10.0625 0.895 10.0625 -0.125 10.0625 C-0.125 9.4025 -0.125 8.7425 -0.125 8.0625 C1.855 8.0625 3.835 8.0625 5.875 8.0625 C5.5625 10.9375 5.5625 10.9375 4.875 14.0625 C1.37934664 16.39293558 -0.0115729 16.65013244 -4.125 16.0625 C-6.98312053 13.50523427 -7.98067742 11.83222041 -8.6875 8.0625 C-7.74030273 3.01078121 -5.2608971 0.10521794 0 0 Z " fill="#F7FAFE" transform="translate(33.125,25.9375)"/>
<path d="M0 0 C4.95 0 9.9 0 15 0 C15 0.66 15 1.32 15 2 C14.01 2 13.02 2 12 2 C12 3.32 12 4.64 12 6 C12.99 6 13.98 6 15 6 C15 6.66 15 7.32 15 8 C10.05 8 5.1 8 0 8 C0 7.34 0 6.68 0 6 C0.66 6 1.32 6 2 6 C2 5.01 2 4.02 2 3 C1.34 3 0.68 3 0 3 C0 2.01 0 1.02 0 0 Z " fill="#DCE9FD" transform="translate(104,56)"/>
<path d="M0 0 C0 3 0 3 -1.8984375 5.12109375 C-2.71570313 5.88550781 -3.53296875 6.64992187 -4.375 7.4375 C-7.25677312 10.14087764 -9.47620787 12.32447941 -11 16 C-13.31 16 -15.62 16 -18 16 C-18.33 16.66 -18.66 17.32 -19 18 C-19.33 16.35 -19.66 14.7 -20 13 C-19.01 13 -18.02 13 -17 13 C-12.17612343 11.63583729 -9.21778429 8.75515069 -5.6875 5.375 C-5.13771484 4.859375 -4.58792969 4.34375 -4.02148438 3.8125 C-2.67501946 2.54799382 -1.33667465 1.27485078 0 0 Z M-20 18 C-17.69 18.33 -15.38 18.66 -13 19 C-12.67 20.32 -12.34 21.64 -12 23 C-12.639375 23.12375 -13.27875 23.2475 -13.9375 23.375 C-14.9584375 23.684375 -14.9584375 23.684375 -16 24 C-16.33 24.66 -16.66 25.32 -17 26 C-17.45375 25.360625 -17.9075 24.72125 -18.375 24.0625 C-19.83921726 21.90297594 -19.83921726 21.90297594 -22 21 C-21.34 20.01 -20.68 19.02 -20 18 Z " fill="#9CBBFE" transform="translate(208,147)"/>
<path d="M0 0 C1.8125 1.25 1.8125 1.25 3 3 C3 4.32 3 5.64 3 7 C0.36 7 -2.28 7 -5 7 C-4.67 7.66 -4.34 8.32 -4 9 C-2.02 9 -0.04 9 2 9 C1.67 9.99 1.34 10.98 1 12 C-4.4 12.36 -4.4 12.36 -6.875 10.875 C-8.52854531 8.11909116 -8.39365568 6.14924548 -8 3 C-5.90534242 -0.30735407 -3.75951639 -0.56392746 0 0 Z " fill="#F8FBFE" transform="translate(49,30)"/>
<path d="M0 0 C0.33 1.65 0.66 3.3 1 5 C1 3.02 1 1.04 1 -1 C1.33 -0.01 1.66 0.98 2 2 C2.99 2 3.98 2 5 2 C5 1.34 5 0.68 5 0 C6.32 0.33 7.64 0.66 9 1 C8.01 1 7.02 1 6 1 C6.33 2.32 6.66 3.64 7 5 C5.35 4.67 3.7 4.34 2 4 C2 6.31 2 8.62 2 11 C1.67 10.34 1.34 9.68 1 9 C-0.98 9 -2.96 9 -5 9 C-5 8.34 -5 7.68 -5 7 C-5.66 7 -6.32 7 -7 7 C-6.74438677 4.6568787 -6.40729228 2.32156597 -6 0 C-3.50907189 -1.24546405 -2.58919267 -0.7767578 0 0 Z " fill="#B7D1FC" transform="translate(67,106)"/>
<path d="M0 0 C1.32 0.33 2.64 0.66 4 1 C4.680625 0.79375 5.36125 0.5875 6.0625 0.375 C6.701875 0.25125 7.34125 0.1275 8 0 C9.609375 1.18359375 9.609375 1.18359375 11 3 C11.29296875 5.26171875 11.29296875 5.26171875 11.1875 7.6875 C11.16042969 8.49574219 11.13335937 9.30398437 11.10546875 10.13671875 C11.07066406 10.75160156 11.03585938 11.36648437 11 12 C10.01 12 9.02 12 8 12 C7.67 9.36 7.34 6.72 7 4 C6.01 4 5.02 4 4 4 C3.67 6.64 3.34 9.28 3 12 C2.01 12 1.02 12 0 12 C0 8.04 0 4.08 0 0 Z " fill="#F2F7FE" transform="translate(54,30)"/>
<path d="M0 0 C0 0.33 0 0.66 0 1 C-2.31 1.33 -4.62 1.66 -7 2 C-6.01 2.66 -5.02 3.32 -4 4 C-5 5 -5 5 -8.74609375 5.0625 C-11.10764114 5.03829969 -13.46872599 4.99949019 -15.83007812 4.9609375 C-20.04706714 4.78688959 -20.04706714 4.78688959 -24 6 C-24 4.35 -24 2.7 -24 1 C-15.9874678 -0.03387512 -8.07094823 -0.10466648 0 0 Z " fill="#5A93FB" transform="translate(24,159)"/>
<path d="M0 0 C0.33 0 0.66 0 1 0 C1 3.96 1 7.92 1 12 C-1.64 12 -4.28 12 -7 12 C-6.67 9.69 -6.34 7.38 -6 5 C-5.34 5 -4.68 5 -4 5 C-4 4.01 -4 3.02 -4 2 C-4.99 2 -5.98 2 -7 2 C-7.33 2.99 -7.66 3.98 -8 5 C-8 3.68 -8 2.36 -8 1 C-5.36 1.33 -2.72 1.66 0 2 C0 1.34 0 0.68 0 0 Z " fill="#B4CFFB" transform="translate(55,105)"/>
<path d="M0 0 C0.556875 0.9590625 0.556875 0.9590625 1.125 1.9375 C3.58052793 4.63858072 5.44578805 4.68407005 9 5 C9 5.66 9 6.32 9 7 C8.34 7 7.68 7 7 7 C7 8.32 7 9.64 7 11 C9.64 11 12.28 11 15 11 C15 11.66 15 12.32 15 13 C9.06 13 3.12 13 -3 13 C-3 12.34 -3 11.68 -3 11 C-0.36 11 2.28 11 5 11 C5 9.68 5 8.36 5 7 C3.35 6.67 1.7 6.34 0 6 C-0.38218767 4.34385343 -0.71395102 2.67542976 -1 1 C-0.67 0.67 -0.34 0.34 0 0 Z " fill="#F2F7FE" transform="translate(87,60)"/>
<path d="M0 0 C0.99 0 1.98 0 3 0 C3 6.6 3 13.2 3 20 C2.01 20 1.02 20 0 20 C0 16.37 0 12.74 0 9 C-1.32 9 -2.64 9 -4 9 C-3.67 8.01 -3.34 7.02 -3 6 C-2.01 6 -1.02 6 0 6 C0 4.02 0 2.04 0 0 Z " fill="#E5EFFE" transform="translate(38,55)"/>
<path d="M0 0 C0 0.66 0 1.32 0 2 C-13.365 2.495 -13.365 2.495 -27 3 C-23.11096779 4.1560817 -23.11096779 4.1560817 -19.4375 3.9375 C-16 4 -16 4 -13 6 C-21.415 6.495 -21.415 6.495 -30 7 C-30 5.02 -30 3.04 -30 1 C-25.75004877 0.83207423 -21.50003166 0.66587676 -17.25 0.5 C-16.0434375 0.45230469 -14.836875 0.40460938 -13.59375 0.35546875 C-11.85351562 0.28779297 -11.85351562 0.28779297 -10.078125 0.21875 C-8.47565918 0.1559082 -8.47565918 0.1559082 -6.84082031 0.09179688 C-4.56153124 0.01814505 -2.28047873 0 0 0 Z " fill="#639AFE" transform="translate(30,165)"/>
<path d="M0 0 C0.99 0 1.98 0 3 0 C3.2475 0.78375 3.495 1.5675 3.75 2.375 C5.15389099 5.32317108 6.00675737 5.9024777 9 7 C9 7.99 9 8.98 9 10 C8.0925 9.67 7.185 9.34 6.25 9 C1.43597426 7.51876131 -1.51308323 8.00581477 -6 10 C-6.33 9.01 -6.66 8.02 -7 7 C-6.21625 6.5875 -5.4325 6.175 -4.625 5.75 C-1.94108344 3.9607223 -1.11901051 2.95011861 0 0 Z " fill="#EAF2FE" transform="translate(69,57)"/>
<path d="M0 0 C0.99 0 1.98 0 3 0 C3.103125 1.0725 3.20625 2.145 3.3125 3.25 C3.98602236 6.92375834 4.65874989 8.25157596 7 11 C7 11.66 7 12.32 7 13 C5.0625 12.625 5.0625 12.625 3 12 C2.67 11.34 2.34 10.68 2 10 C1.071875 10.99 1.071875 10.99 0.125 12 C-2 14 -2 14 -4 14 C-3.38722388 11.03824877 -2.74627478 9.61941217 -1 7 C-0.60612212 4.67612053 -0.26513915 2.34206251 0 0 Z " fill="#F2F7FE" transform="translate(29,57)"/>
<path d="M0 0 C0.33 0.66 0.66 1.32 1 2 C2.65 1.34 4.3 0.68 6 0 C6 1.65 6 3.3 6 5 C6.66 5.33 7.32 5.66 8 6 C7.34 6 6.68 6 6 6 C6 7.98 6 9.96 6 12 C5.608125 11.525625 5.21625 11.05125 4.8125 10.5625 C2.59191626 8.64820367 0.86624291 8.38733012 -2 8 C-2 6.68 -2 5.36 -2 4 C-0.7934375 4.0309375 -0.7934375 4.0309375 0.4375 4.0625 C2.93354885 4.29633621 2.93354885 4.29633621 4 3 C1.69 3 -0.62 3 -3 3 C-2.01 2.67 -1.02 2.34 0 2 C0 1.34 0 0.68 0 0 Z " fill="#BAD3FC" transform="translate(85,105)"/>
<path d="M0 0 C5.94 0 11.88 0 18 0 C18 0.99 18 1.98 18 3 C12.06 3 6.12 3 0 3 C0 2.01 0 1.02 0 0 Z " fill="#D7E6FD" transform="translate(61,70)"/>
<path d="M0 0 C5.94 0 11.88 0 18 0 C18 0.99 18 1.98 18 3 C12.06 3 6.12 3 0 3 C0 2.01 0 1.02 0 0 Z " fill="#D0E2FD" transform="translate(102,65)"/>
<path d="M0 0 C0.99 0 1.98 0 3 0 C3 5.28 3 10.56 3 16 C2.01 16 1.02 16 0 16 C0 10.72 0 5.44 0 0 Z " fill="#EDF4FE" transform="translate(89,26)"/>
<path d="M0 0 C1.4540625 0.0309375 1.4540625 0.0309375 2.9375 0.0625 C3.5975 1.3825 4.2575 2.7025 4.9375 4.0625 C1.70958445 6.2144437 0.65349191 6.26336443 -3.0625 6.0625 C-3.44468767 4.40635343 -3.77645102 2.73792976 -4.0625 1.0625 C-3.0625 0.0625 -3.0625 0.0625 0 0 Z " fill="#5D9DFA" transform="translate(93.0625,58.9375)"/>
<path d="M0 0 C0.99 0 1.98 0 3 0 C3 1.32 3 2.64 3 4 C6.63 4 10.26 4 14 4 C14 4.66 14 5.32 14 6 C9.38 6 4.76 6 0 6 C0 4.02 0 2.04 0 0 Z " fill="#E0ECFD" transform="translate(104,69)"/>
<path d="M0 0 C1.32 0 2.64 0 4 0 C4 3.96 4 7.92 4 12 C2.68 11.67 1.36 11.34 0 11 C0 7.37 0 3.74 0 0 Z " fill="#BDD5FB" transform="translate(30,105)"/>
<path d="M0 0 C1.485 0.99 1.485 0.99 3 2 C5.86911207 2.37020801 8.71333085 2.50463679 11.6015625 2.65625 C12.78878906 2.82640625 12.78878906 2.82640625 14 3 C14.33 3.66 14.66 4.32 15 5 C10.05 5 5.1 5 0 5 C0 3.35 0 1.7 0 0 Z " fill="#334D85" transform="translate(0,223)"/>
<path d="M0 0 C0.66 0 1.32 0 2 0 C2 4.29 2 8.58 2 13 C0.02 13 -1.96 13 -4 13 C-2.68 12.67 -1.36 12.34 0 12 C-0.2784375 10.4221875 -0.2784375 10.4221875 -0.5625 8.8125 C-0.95079331 5.42880118 -0.88247485 3.23574112 0 0 Z " fill="#FFFFFF" transform="translate(51,57)"/>
<path d="M0 0 C1.485 0.99 1.485 0.99 3 2 C5.64561717 2.16693544 5.64561717 2.16693544 8.5 2 C13.66666667 1.77777778 13.66666667 1.77777778 17 4 C8.585 4.495 8.585 4.495 0 5 C0 3.35 0 1.7 0 0 Z " fill="#5B93FB" transform="translate(0,167)"/>
<path d="M0 0 C3.3 0 6.6 0 10 0 C10 0.66 10 1.32 10 2 C9.01 2 8.02 2 7 2 C6.67 3.32 6.34 4.64 6 6 C6 4.68 6 3.36 6 2 C5.01 2 4.02 2 3 2 C2.67 3.32 2.34 4.64 2 6 C2 4.68 2 3.36 2 2 C1.34 2 0.68 2 0 2 C0 1.34 0 0.68 0 0 Z " fill="#B9D3FB" transform="translate(36,111)"/>
<path d="M0 0 C5.53846154 -0.36923077 5.53846154 -0.36923077 7.875 1.5 C8.24625 1.995 8.6175 2.49 9 3 C8.278125 2.979375 7.55625 2.95875 6.8125 2.9375 C4.08074862 2.99820559 1.65743909 3.39258535 -1 4 C-1.33 3.34 -1.66 2.68 -2 2 C-1.34 2 -0.68 2 0 2 C0 1.34 0 0.68 0 0 Z " fill="#98B6FD" transform="translate(139,182)"/>
<path d="M0 0 C2.62187494 1.04874998 3.79371361 1.64931313 5.25 4.125 C5.4975 4.74375 5.745 5.3625 6 6 C4.71034824 7.37562854 3.37310707 8.70766393 2 10 C1.34 10 0.68 10 0 10 C0 9.34 0 8.68 0 8 C0.66 7.67 1.32 7.34 2 7 C1.42415568 4.61435923 0.77772405 2.33317216 0 0 Z " fill="#B2CEFB" transform="translate(110,106)"/>
<path d="M0 0 C1.2065625 0.0309375 1.2065625 0.0309375 2.4375 0.0625 C2.1075 0.7225 1.7775 1.3825 1.4375 2.0625 C1.7675 3.0525 2.0975 4.0425 2.4375 5.0625 C-0.22916667 5.0625 -2.89583333 5.0625 -5.5625 5.0625 C-3.15007962 0.07683121 -3.15007962 0.07683121 0 0 Z " fill="#B1D0FC" transform="translate(46.5625,29.9375)"/>
<path d="M0 0 C1.65 0 3.3 0 5 0 C5 1.65 5 3.3 5 5 C3.35 4.67 1.7 4.34 0 4 C0 2.68 0 1.36 0 0 Z " fill="#ACCAFB" transform="translate(83,109)"/>
<path d="M0 0 C0.66 0 1.32 0 2 0 C2 0.66 2 1.32 2 2 C3.98 2 5.96 2 8 2 C8 2.66 8 3.32 8 4 C5.36 4 2.72 4 0 4 C0 2.68 0 1.36 0 0 Z " fill="#AECBFB" transform="translate(73,113)"/>
<path d="M0 0 C1.98 0 3.96 0 6 0 C6 0.99 6 1.98 6 3 C3.36 3 0.72 3 -2 3 C-1.34 2.67 -0.68 2.34 0 2 C0 1.34 0 0.68 0 0 Z " fill="#A1C4FA" transform="translate(50,114)"/>
<path d="M0 0 C0.33 0 0.66 0 1 0 C1.33 2.31 1.66 4.62 2 7 C0.35 7 -1.3 7 -3 7 C-2.38722388 4.03824877 -1.74627478 2.61941217 0 0 Z " fill="#609AF8" transform="translate(78,108)"/>
<path d="M0 0 C2.475 0.495 2.475 0.495 5 1 C4.34 2.32 3.68 3.64 3 5 C2.01 4.67 1.02 4.34 0 4 C0 2.68 0 1.36 0 0 Z " fill="#96BCFA" transform="translate(73,107)"/>
<path d="M0 0 C0.33 0.66 0.66 1.32 1 2 C2.32 2 3.64 2 5 2 C5 3.65 5 5.3 5 7 C3.0625 6.3125 3.0625 6.3125 1 5 C0.25 2.375 0.25 2.375 0 0 Z " fill="#5094F9" transform="translate(33,62)"/>
<path d="M0 0 C3.625 0.375 3.625 0.375 7 1 C7 1.33 7 1.66 7 2 C5.824375 2.1546875 5.824375 2.1546875 4.625 2.3125 C1.66954819 2.77595022 1.66954819 2.77595022 0 6 C-0.66 4.68 -1.32 3.36 -2 2 C-1.34 1.34 -0.68 0.68 0 0 Z " fill="#DBE9FE" transform="translate(88,57)"/>
</svg>
